<svg width="618" height="410" viewBox="0 0 618 410" fill="none" xmlns="http://www.w3.org/2000/svg">
<g filter="url(#filter0_dd_361_588)">
<path d="M10.064 122.2H19.6L26.896 167H19.856L18.576 158.104V158.232H10.576L9.296 167H2.768L10.064 122.2ZM17.744 152.152L14.608 130.008H14.48L11.408 152.152H17.744ZM32.8715 122.2H39.9115V160.6H51.4955V167H32.8715V122.2ZM57.4315 122.2H64.4715V160.6H76.0555V167H57.4315V122.2ZM101.265 147.928L92.7535 122.2H100.241L105.041 138.648H105.169L109.969 122.2H116.817L108.305 147.928V167H101.265V147.928ZM131.6 167.64C128.144 167.64 125.499 166.659 123.664 164.696C121.829 162.733 120.912 159.96 120.912 156.376V132.824C120.912 129.24 121.829 126.467 123.664 124.504C125.499 122.541 128.144 121.56 131.6 121.56C135.056 121.56 137.701 122.541 139.536 124.504C141.371 126.467 142.288 129.24 142.288 132.824V156.376C142.288 159.96 141.371 162.733 139.536 164.696C137.701 166.659 135.056 167.64 131.6 167.64ZM131.6 161.24C134.032 161.24 135.248 159.768 135.248 156.824V132.376C135.248 129.432 134.032 127.96 131.6 127.96C129.168 127.96 127.952 129.432 127.952 132.376V156.824C127.952 159.768 129.168 161.24 131.6 161.24ZM159.849 167.64C156.436 167.64 153.833 166.68 152.041 164.76C150.249 162.797 149.353 160.003 149.353 156.376V122.2H156.393V156.888C156.393 158.424 156.692 159.533 157.289 160.216C157.929 160.899 158.825 161.24 159.977 161.24C161.129 161.24 162.004 160.899 162.601 160.216C163.241 159.533 163.561 158.424 163.561 156.888V122.2H170.345V156.376C170.345 160.003 169.449 162.797 167.657 164.76C165.865 166.68 163.262 167.64 159.849 167.64ZM190.729 122.2H199.561L206.409 149.016H206.537V122.2H212.809V167H205.577L197.129 134.296H197.001V167H190.729V122.2ZM220.601 122.2H239.801V128.6H227.641V140.44H237.305V146.84H227.641V160.6H239.801V167H220.601V122.2ZM246.412 122.2H265.612V128.6H253.452V140.44H263.116V146.84H253.452V160.6H265.612V167H246.412V122.2ZM272.222 122.2H282.974C286.472 122.2 289.096 123.139 290.846 125.016C292.595 126.893 293.47 129.645 293.47 133.272V155.928C293.47 159.555 292.595 162.307 290.846 164.184C289.096 166.061 286.472 167 282.974 167H272.222V122.2ZM282.846 160.6C283.998 160.6 284.872 160.259 285.47 159.576C286.11 158.893 286.43 157.784 286.43 156.248V132.952C286.43 131.416 286.11 130.307 285.47 129.624C284.872 128.941 283.998 128.6 282.846 128.6H279.262V160.6H282.846ZM319.095 128.6H311.735V122.2H333.496V128.6H326.135V167H319.095V128.6ZM349.39 167.64C345.934 167.64 343.289 166.659 341.454 164.696C339.619 162.733 338.702 159.96 338.702 156.376V132.824C338.702 129.24 339.619 126.467 341.454 124.504C343.289 122.541 345.934 121.56 349.39 121.56C352.846 121.56 355.491 122.541 357.326 124.504C359.161 126.467 360.078 129.24 360.078 132.824V156.376C360.078 159.96 359.161 162.733 357.326 164.696C355.491 166.659 352.846 167.64 349.39 167.64ZM349.39 161.24C351.822 161.24 353.038 159.768 353.038 156.824V132.376C353.038 129.432 351.822 127.96 349.39 127.96C346.958 127.96 345.742 129.432 345.742 132.376V156.824C345.742 159.768 346.958 161.24 349.39 161.24ZM380.209 122.2H390.961C394.46 122.2 397.084 123.139 398.833 125.016C400.582 126.893 401.457 129.645 401.457 133.272V155.928C401.457 159.555 400.582 162.307 398.833 164.184C397.084 166.061 394.46 167 390.961 167H380.209V122.2ZM390.833 160.6C391.985 160.6 392.86 160.259 393.457 159.576C394.097 158.893 394.417 157.784 394.417 156.248V132.952C394.417 131.416 394.097 130.307 393.457 129.624C392.86 128.941 391.985 128.6 390.833 128.6H387.249V160.6H390.833ZM418.945 167.64C415.489 167.64 412.844 166.659 411.009 164.696C409.174 162.733 408.257 159.96 408.257 156.376V132.824C408.257 129.24 409.174 126.467 411.009 124.504C412.844 122.541 415.489 121.56 418.945 121.56C422.401 121.56 425.046 122.541 426.881 124.504C428.716 126.467 429.633 129.24 429.633 132.824V156.376C429.633 159.96 428.716 162.733 426.881 164.696C425.046 166.659 422.401 167.64 418.945 167.64ZM418.945 161.24C421.377 161.24 422.593 159.768 422.593 156.824V132.376C422.593 129.432 421.377 127.96 418.945 127.96C416.513 127.96 415.297 129.432 415.297 132.376V156.824C415.297 159.768 416.513 161.24 418.945 161.24ZM449.764 122.2H456.804V167H449.764V122.2ZM473.789 167.64C470.375 167.64 467.794 166.68 466.045 164.76C464.295 162.797 463.421 160.003 463.421 156.376V153.816H470.077V156.888C470.077 159.789 471.293 161.24 473.725 161.24C474.919 161.24 475.815 160.899 476.413 160.216C477.053 159.491 477.373 158.339 477.373 156.76C477.373 154.883 476.946 153.24 476.093 151.832C475.239 150.381 473.661 148.653 471.357 146.648C468.455 144.088 466.429 141.784 465.277 139.736C464.125 137.645 463.549 135.299 463.549 132.696C463.549 129.155 464.445 126.424 466.237 124.504C468.029 122.541 470.631 121.56 474.045 121.56C477.415 121.56 479.954 122.541 481.661 124.504C483.41 126.424 484.285 129.197 484.285 132.824V134.68H477.629V132.376C477.629 130.84 477.33 129.731 476.733 129.048C476.135 128.323 475.261 127.96 474.109 127.96C471.762 127.96 470.589 129.389 470.589 132.248C470.589 133.869 471.015 135.384 471.869 136.792C472.765 138.2 474.365 139.907 476.669 141.912C479.613 144.472 481.639 146.797 482.749 148.888C483.858 150.979 484.413 153.432 484.413 156.248C484.413 159.917 483.495 162.733 481.661 164.696C479.869 166.659 477.245 167.64 473.789 167.64Z" fill="white"/>
<path d="M6.288 255.256C5.008 255.256 3.92 255.171 3.024 255V248.6C3.70667 248.771 4.47467 248.856 5.328 248.856C6.736 248.856 7.78133 248.515 8.464 247.832C9.14667 247.107 9.488 246.019 9.488 244.568V210.2H16.528V244.376C16.528 248.045 15.6747 250.776 13.968 252.568C12.304 254.36 9.744 255.256 6.288 255.256ZM34.3615 255.64C30.9482 255.64 28.3455 254.68 26.5535 252.76C24.7615 250.797 23.8655 248.003 23.8655 244.376V210.2H30.9055V244.888C30.9055 246.424 31.2042 247.533 31.8015 248.216C32.4415 248.899 33.3375 249.24 34.4895 249.24C35.6415 249.24 36.5162 248.899 37.1135 248.216C37.7535 247.533 38.0735 246.424 38.0735 244.888V210.2H44.8575V244.376C44.8575 248.003 43.9615 250.797 42.1695 252.76C40.3775 254.68 37.7748 255.64 34.3615 255.64ZM61.5835 255.64C58.1702 255.64 55.5888 254.68 53.8395 252.76C52.0902 250.797 51.2155 248.003 51.2155 244.376V241.816H57.8715V244.888C57.8715 247.789 59.0875 249.24 61.5195 249.24C62.7142 249.24 63.6102 248.899 64.2075 248.216C64.8475 247.491 65.1675 246.339 65.1675 244.76C65.1675 242.883 64.7408 241.24 63.8875 239.832C63.0342 238.381 61.4555 236.653 59.1515 234.648C56.2502 232.088 54.2235 229.784 53.0715 227.736C51.9195 225.645 51.3435 223.299 51.3435 220.696C51.3435 217.155 52.2395 214.424 54.0315 212.504C55.8235 210.541 58.4262 209.56 61.8395 209.56C65.2102 209.56 67.7488 210.541 69.4555 212.504C71.2048 214.424 72.0795 217.197 72.0795 220.824V222.68H65.4235V220.376C65.4235 218.84 65.1248 217.731 64.5275 217.048C63.9302 216.323 63.0555 215.96 61.9035 215.96C59.5568 215.96 58.3835 217.389 58.3835 220.248C58.3835 221.869 58.8102 223.384 59.6635 224.792C60.5595 226.2 62.1595 227.907 64.4635 229.912C67.4075 232.472 69.4342 234.797 70.5435 236.888C71.6528 238.979 72.2075 241.432 72.2075 244.248C72.2075 247.917 71.2902 250.733 69.4555 252.696C67.6635 254.659 65.0395 255.64 61.5835 255.64ZM84.308 216.6H76.948V210.2H98.708V216.6H91.348V255H84.308V216.6Z" fill="#4200FF"/>
</g>
<g filter="url(#filter1_d_361_588)">
<path d="M4.624 1.2H15.376C18.8747 1.2 21.4987 2.13866 23.248 4.016C24.9973 5.89333 25.872 8.64533 25.872 12.272V34.928C25.872 38.5547 24.9973 41.3067 23.248 43.184C21.4987 45.0613 18.8747 46 15.376 46H4.624V1.2ZM15.248 39.6C16.4 39.6 17.2747 39.2587 17.872 38.576C18.512 37.8933 18.832 36.784 18.832 35.248V11.952C18.832 10.416 18.512 9.30666 17.872 8.624C17.2747 7.94133 16.4 7.6 15.248 7.6H11.664V39.6H15.248ZM43.36 46.64C39.904 46.64 37.2587 45.6587 35.424 43.696C33.5893 41.7333 32.672 38.96 32.672 35.376V11.824C32.672 8.24 33.5893 5.46666 35.424 3.504C37.2587 1.54133 39.904 0.559998 43.36 0.559998C46.816 0.559998 49.4613 1.54133 51.296 3.504C53.1307 5.46666 54.048 8.24 54.048 11.824V35.376C54.048 38.96 53.1307 41.7333 51.296 43.696C49.4613 45.6587 46.816 46.64 43.36 46.64ZM43.36 40.24C45.792 40.24 47.008 38.768 47.008 35.824V11.376C47.008 8.432 45.792 6.96 43.36 6.96C40.928 6.96 39.712 8.432 39.712 11.376V35.824C39.712 38.768 40.928 40.24 43.36 40.24ZM61.369 1.2H70.201L77.049 28.016H77.177V1.2H83.449V46H76.217L67.769 13.296H67.641V46H61.369V1.2ZM93.5455 7.984H91.2415V1.2H98.0255V7.28L94.1215 15.664H90.8575L93.5455 7.984ZM111.993 7.6H104.633V1.2H126.393V7.6H119.033V46H111.993V7.6ZM143.508 1.2H150.292L153.428 35.632H153.556L156.884 1.2H164.564L167.892 35.632H168.02L171.156 1.2H177.236L172.692 46H163.924L160.724 15.792H160.596L157.396 46H148.052L143.508 1.2ZM187.921 1.2H197.457L204.753 46H197.713L196.433 37.104V37.232H188.433L187.153 46H180.625L187.921 1.2ZM195.601 31.152L192.465 9.008H192.337L189.265 31.152H195.601ZM219.693 46.64C216.28 46.64 213.699 45.68 211.949 43.76C210.2 41.7973 209.325 39.0027 209.325 35.376V32.816H215.981V35.888C215.981 38.7893 217.197 40.24 219.629 40.24C220.824 40.24 221.72 39.8987 222.317 39.216C222.957 38.4907 223.277 37.3387 223.277 35.76C223.277 33.8827 222.851 32.24 221.997 30.832C221.144 29.3813 219.565 27.6533 217.261 25.648C214.36 23.088 212.333 20.784 211.181 18.736C210.029 16.6453 209.453 14.2987 209.453 11.696C209.453 8.15467 210.349 5.424 212.141 3.504C213.933 1.54133 216.536 0.559998 219.949 0.559998C223.32 0.559998 225.859 1.54133 227.565 3.504C229.315 5.424 230.189 8.19733 230.189 11.824V13.68H223.533V11.376C223.533 9.84 223.235 8.73066 222.637 8.048C222.04 7.32266 221.165 6.96 220.013 6.96C217.667 6.96 216.493 8.38933 216.493 11.248C216.493 12.8693 216.92 14.384 217.773 15.792C218.669 17.2 220.269 18.9067 222.573 20.912C225.517 23.472 227.544 25.7973 228.653 27.888C229.763 29.9787 230.317 32.432 230.317 35.248C230.317 38.9173 229.4 41.7333 227.565 43.696C225.773 45.6587 223.149 46.64 219.693 46.64ZM242.418 7.6H235.058V1.2H256.818V7.6H249.458V46H242.418V7.6ZM262.787 1.2H281.987V7.6H269.827V19.44H279.491V25.84H269.827V39.6H281.987V46H262.787V1.2ZM307.871 26.928L299.359 1.2H306.847L311.647 17.648H311.775L316.575 1.2H323.423L314.911 26.928V46H307.871V26.928ZM338.205 46.64C334.749 46.64 332.104 45.6587 330.269 43.696C328.434 41.7333 327.517 38.96 327.517 35.376V11.824C327.517 8.24 328.434 5.46666 330.269 3.504C332.104 1.54133 334.749 0.559998 338.205 0.559998C341.661 0.559998 344.306 1.54133 346.141 3.504C347.976 5.46666 348.893 8.24 348.893 11.824V35.376C348.893 38.96 347.976 41.7333 346.141 43.696C344.306 45.6587 341.661 46.64 338.205 46.64ZM338.205 40.24C340.637 40.24 341.853 38.768 341.853 35.824V11.376C341.853 8.432 340.637 6.96 338.205 6.96C335.773 6.96 334.557 8.432 334.557 11.376V35.824C334.557 38.768 335.773 40.24 338.205 40.24ZM366.454 46.64C363.041 46.64 360.438 45.68 358.646 43.76C356.854 41.7973 355.958 39.0027 355.958 35.376V1.2H362.998V35.888C362.998 37.424 363.297 38.5333 363.894 39.216C364.534 39.8987 365.43 40.24 366.582 40.24C367.734 40.24 368.609 39.8987 369.206 39.216C369.846 38.5333 370.166 37.424 370.166 35.888V1.2H376.95V35.376C376.95 39.0027 376.054 41.7973 374.262 43.76C372.47 45.68 369.867 46.64 366.454 46.64ZM384.524 1.2H394.956C398.583 1.2 401.228 2.05333 402.892 3.76C404.556 5.424 405.388 8.00533 405.388 11.504V14.256C405.388 18.9067 403.852 21.8507 400.78 23.088V23.216C402.487 23.728 403.681 24.7733 404.364 26.352C405.089 27.9307 405.452 30.0427 405.452 32.688V40.56C405.452 41.84 405.495 42.8853 405.58 43.696C405.665 44.464 405.879 45.232 406.22 46H399.052C398.796 45.2747 398.625 44.592 398.54 43.952C398.455 43.312 398.412 42.16 398.412 40.496V32.304C398.412 30.256 398.071 28.8267 397.388 28.016C396.748 27.2053 395.617 26.8 393.996 26.8H391.564V46H384.524V1.2ZM394.124 20.4C395.532 20.4 396.577 20.0373 397.26 19.312C397.985 18.5867 398.348 17.3707 398.348 15.664V12.208C398.348 10.5867 398.049 9.41333 397.452 8.688C396.897 7.96267 396.001 7.6 394.764 7.6H391.564V20.4H394.124Z" fill="white"/>
<path d="M431.21 7.6H423.85V1.2H445.61V7.6H438.25V46H431.21V7.6ZM451.579 1.2H458.619V46H451.579V1.2ZM466.451 1.2H476.499L480.979 33.264H481.107L485.587 1.2H495.635V46H488.979V12.08H488.851L483.731 46H477.843L472.723 12.08H472.595V46H466.451V1.2ZM503.449 1.2H522.649V7.6H510.489V19.44H520.153V25.84H510.489V39.6H522.649V46H503.449V1.2Z" fill="#4200FF"/>
</g>
<path d="M42.8204 297.614C-35.2555 330.984 44.3978 379.291 292.821 355.773C481.097 337.949 550.314 289.033 556.623 258.523C562.17 231.698 504.704 239.349 501.024 242.315" stroke="url(#paint0_radial_361_588)" stroke-width="7"/>
<path d="M185.12 229.68H191.12V223.68H185.12V229.68ZM152.8 228.56L157.043 224.317L157.043 224.317L152.8 228.56ZM152.8 211.12L157.043 215.363L157.043 215.363L152.8 211.12ZM207.68 229.68V223.68H201.68V229.68H207.68ZM188.96 316C189.141 316 189.432 316.035 189.764 316.172C190.098 316.309 190.339 316.494 190.483 316.637L181.997 325.123C183.882 327.007 186.32 328 188.96 328V316ZM190.483 316.637C190.626 316.781 190.811 317.021 190.948 317.355C191.085 317.688 191.12 317.979 191.12 318.16H179.12C179.12 320.8 180.113 323.238 181.997 325.123L190.483 316.637ZM191.12 318.16V229.68H179.12V318.16H191.12ZM185.12 223.68H155.52V235.68H185.12V223.68ZM155.52 223.68C155.701 223.68 155.992 223.715 156.325 223.852C156.659 223.989 156.899 224.174 157.043 224.317L148.557 232.803C150.442 234.687 152.88 235.68 155.52 235.68V223.68ZM157.043 224.317C157.186 224.461 157.371 224.701 157.508 225.035C157.645 225.368 157.68 225.659 157.68 225.84H145.68C145.68 228.48 146.673 230.918 148.557 232.803L157.043 224.317ZM157.68 225.84V214H145.68V225.84H157.68ZM157.68 214C157.68 214.055 157.67 214.272 157.552 214.575C157.429 214.89 157.242 215.163 157.043 215.363L148.557 206.877C146.555 208.879 145.68 211.429 145.68 214H157.68ZM157.043 215.363C156.899 215.506 156.659 215.691 156.325 215.828C155.992 215.965 155.701 216 155.52 216V204C152.88 204 150.442 204.993 148.557 206.877L157.043 215.363ZM155.52 216H237.12V204H155.52V216ZM237.12 216C237.065 216 236.848 215.99 236.545 215.872C236.23 215.749 235.957 215.562 235.757 215.363L244.243 206.877C242.241 204.875 239.691 204 237.12 204V216ZM235.757 215.363C235.558 215.163 235.371 214.89 235.248 214.575C235.13 214.272 235.12 214.055 235.12 214H247.12C247.12 211.429 246.245 208.879 244.243 206.877L235.757 215.363ZM235.12 214V225.84H247.12V214H235.12ZM235.12 225.84C235.12 225.659 235.155 225.368 235.292 225.035C235.429 224.701 235.614 224.461 235.757 224.317L244.243 232.803C246.127 230.918 247.12 228.48 247.12 225.84H235.12ZM235.757 224.317C235.957 224.118 236.23 223.931 236.545 223.808C236.848 223.69 237.065 223.68 237.12 223.68V235.68C239.691 235.68 242.241 234.805 244.243 232.803L235.757 224.317ZM237.12 223.68H207.68V235.68H237.12V223.68ZM201.68 229.68V318.16H213.68V229.68H201.68ZM201.68 318.16C201.68 317.979 201.715 317.688 201.852 317.355C201.989 317.021 202.174 316.781 202.317 316.637L210.803 325.123C212.687 323.238 213.68 320.8 213.68 318.16H201.68ZM202.317 316.637C202.517 316.438 202.79 316.251 203.105 316.128C203.408 316.01 203.625 316 203.68 316V328C206.251 328 208.801 327.125 210.803 325.123L202.317 316.637ZM203.68 316H188.96V328H203.68V316ZM236.356 321.04L232.114 325.283L232.277 325.446L232.451 325.596L236.356 321.04ZM235.716 317.2L241.287 319.428L241.313 319.364L241.337 319.3L235.716 317.2ZM274.276 214L279.897 216.1L279.966 215.914L280.023 215.724L274.276 214ZM276.036 211.28L279.987 215.795L280.005 215.78L280.022 215.764L276.036 211.28ZM300.996 211.28L296.754 215.523L296.895 215.664L297.045 215.795L300.996 211.28ZM302.916 214L308.537 211.9L308.513 211.836L308.487 211.772L302.916 214ZM341.476 317.2L347.36 316.023L347.265 315.551L347.097 315.1L341.476 317.2ZM340.676 321.04L344.919 325.283L344.919 325.283L340.676 321.04ZM321.156 321.04L316.601 324.945L316.901 325.295L317.252 325.596L321.156 321.04ZM319.876 318.96L325.568 317.063L325.525 316.932L325.475 316.803L319.876 318.96ZM312.356 299.44L317.955 297.283L316.475 293.44H312.356V299.44ZM264.836 299.44V293.44H260.718L259.237 297.283L264.836 299.44ZM257.316 318.96L251.717 316.803L251.668 316.932L251.624 317.063L257.316 318.96ZM255.876 321.04L251.634 316.797H251.634L255.876 321.04ZM270.436 281.04L264.801 278.979L261.853 287.04H270.436V281.04ZM306.756 281.04V287.04H315.365L312.385 278.963L306.756 281.04ZM288.516 231.6L294.145 229.523L288.491 214.198L282.881 229.539L288.516 231.6ZM238.756 316C239.1 316 239.443 316.068 239.745 316.189C240.035 316.305 240.204 316.436 240.261 316.484L232.451 325.596C234.11 327.017 236.255 328 238.756 328V316ZM240.599 316.797C240.824 317.022 241.05 317.339 241.207 317.732C241.361 318.117 241.396 318.444 241.396 318.64H229.396C229.396 321.084 230.275 323.444 232.114 325.283L240.599 316.797ZM241.396 318.64C241.396 319.191 241.265 319.484 241.287 319.428L230.145 314.972C229.741 315.983 229.396 317.236 229.396 318.64H241.396ZM241.337 319.3L279.897 216.1L268.656 211.9L230.096 315.1L241.337 319.3ZM280.023 215.724C280.025 215.717 280.024 215.722 280.018 215.735C280.012 215.748 280.004 215.764 279.994 215.779C279.983 215.795 279.975 215.806 279.971 215.811C279.967 215.815 279.971 215.81 279.987 215.795L272.085 206.765C270.399 208.24 269.18 210.108 268.529 212.276L280.023 215.724ZM280.022 215.764C279.951 215.828 279.872 215.884 279.793 215.929C279.715 215.974 279.651 216 279.614 216.012C279.54 216.037 279.605 216 279.876 216V204C277.182 204 274.36 204.743 272.05 206.796L280.022 215.764ZM279.876 216H297.316V204H279.876V216ZM297.316 216C297.595 216 297.613 216.038 297.465 215.987C297.388 215.96 297.274 215.911 297.142 215.83C297.008 215.748 296.875 215.644 296.754 215.523L305.239 207.037C302.93 204.729 299.971 204 297.316 204V216ZM297.045 215.795C297.176 215.91 297.266 216.029 297.345 216.228L308.487 211.772C307.713 209.837 306.523 208.144 304.947 206.765L297.045 215.795ZM297.296 216.1L335.856 319.3L347.097 315.1L308.537 211.9L297.296 216.1ZM335.593 318.377C335.616 318.494 335.628 318.575 335.633 318.623C335.638 318.671 335.636 318.675 335.636 318.64H347.636C347.636 317.728 347.524 316.844 347.36 316.023L335.593 318.377ZM335.636 318.64C335.636 318.444 335.671 318.117 335.825 317.732C335.982 317.339 336.209 317.022 336.434 316.797L344.919 325.283C346.758 323.444 347.636 321.084 347.636 318.64H335.636ZM336.434 316.797C336.592 316.639 336.869 316.418 337.273 316.245C337.684 316.069 338.092 316 338.436 316V328C340.985 328 343.229 326.972 344.919 325.283L336.434 316.797ZM338.436 316H324.516V328H338.436V316ZM324.516 316C324.179 316 324.102 315.962 324.205 315.991C324.324 316.025 324.668 316.148 325.061 316.484L317.252 325.596C319.527 327.546 322.305 328 324.516 328V316ZM325.712 317.135C325.636 317.046 325.579 316.974 325.538 316.919C325.496 316.863 325.474 316.829 325.466 316.815C325.458 316.802 325.467 316.815 325.485 316.854C325.504 316.892 325.535 316.962 325.568 317.063L314.184 320.857C314.728 322.489 315.667 323.855 316.601 324.945L325.712 317.135ZM325.475 316.803L317.955 297.283L306.757 301.597L314.277 321.117L325.475 316.803ZM312.356 293.44H264.836V305.44H312.356V293.44ZM259.237 297.283L251.717 316.803L262.915 321.117L270.435 301.597L259.237 297.283ZM251.624 317.063C251.681 316.892 251.74 316.764 251.783 316.682C251.826 316.6 251.857 316.554 251.863 316.545C251.87 316.535 251.858 316.554 251.819 316.599C251.78 316.645 251.72 316.711 251.634 316.797L260.119 325.283C261.189 324.212 262.38 322.742 263.008 320.857L251.624 317.063ZM251.634 316.797C252.16 316.271 252.671 316.073 252.872 316.013C253.052 315.959 253.024 316 252.676 316V328C254.779 328 257.811 327.591 260.119 325.283L251.634 316.797ZM252.676 316H238.756V328H252.676V316ZM270.436 287.04H306.756V275.04H270.436V287.04ZM312.385 278.963L294.145 229.523L282.887 233.677L301.127 283.117L312.385 278.963ZM282.881 229.539L264.801 278.979L276.071 283.101L294.151 233.661L282.881 229.539ZM357.694 320.88L353.451 325.123V325.123L357.694 320.88ZM357.694 211.12L361.936 215.363L361.936 215.363L357.694 211.12ZM425.054 214L422.679 219.51L422.719 219.527L422.76 219.544L425.054 214ZM439.454 225.84L434.4 229.074L434.415 229.098L434.43 229.121L439.454 225.84ZM439.454 265.36L444.446 268.688L444.462 268.665L444.477 268.641L439.454 265.36ZM425.054 276.88L427.348 282.424L425.054 276.88ZM379.454 280.72V274.72H373.454V280.72H379.454ZM378.334 320.88L374.091 316.637L373.928 316.8L373.778 316.975L378.334 320.88ZM379.134 262.96H373.134V268.96H379.134V262.96ZM416.734 258.64L420.674 263.164L420.715 263.129L420.755 263.093L416.734 258.64ZM417.054 232.72L412.672 236.819L412.706 236.855L412.74 236.89L417.054 232.72ZM379.134 227.76V221.76H373.134V227.76H379.134ZM360.414 316C360.595 316 360.885 316.035 361.218 316.172C361.552 316.309 361.793 316.494 361.936 316.637L353.451 325.123C355.336 327.007 357.774 328 360.414 328V316ZM361.936 316.637C362.08 316.781 362.264 317.021 362.402 317.355C362.539 317.688 362.574 317.979 362.574 318.16H350.574C350.574 320.8 351.566 323.238 353.451 325.123L361.936 316.637ZM362.574 318.16V214H350.574V318.16H362.574ZM362.574 214C362.574 214.055 362.564 214.272 362.446 214.575C362.323 214.89 362.136 215.163 361.936 215.363L353.451 206.877C351.449 208.879 350.574 211.429 350.574 214H362.574ZM361.936 215.363C361.793 215.506 361.552 215.691 361.218 215.828C360.885 215.965 360.595 216 360.414 216V204C357.774 204 355.336 204.993 353.451 206.877L361.936 215.363ZM360.414 216H403.294V204H360.414V216ZM403.294 216C410.983 216 417.396 217.233 422.679 219.51L427.429 208.49C420.338 205.434 412.244 204 403.294 204V216ZM422.76 219.544C427.881 221.663 431.688 224.836 434.4 229.074L444.507 222.606C440.393 216.177 434.6 211.457 427.348 208.456L422.76 219.544ZM434.43 229.121C437.057 233.143 438.574 238.485 438.574 245.52H450.574C450.574 236.768 448.677 228.99 444.477 222.559L434.43 229.121ZM438.574 245.52C438.574 252.68 437.049 258.069 434.43 262.079L444.477 268.641C448.685 262.198 450.574 254.36 450.574 245.52H438.574ZM434.461 262.032C431.766 266.075 427.948 269.189 422.76 271.336L427.348 282.424C434.533 279.451 440.315 274.885 444.446 268.688L434.461 262.032ZM422.76 271.336C417.454 273.531 411.011 274.72 403.294 274.72V286.72C412.216 286.72 420.281 285.349 427.348 282.424L422.76 271.336ZM403.294 274.72H379.454V286.72H403.294V274.72ZM373.454 280.72V318.16H385.454V280.72H373.454ZM373.454 318.16C373.454 317.979 373.489 317.688 373.626 317.355C373.763 317.021 373.948 316.781 374.091 316.637L382.576 325.123C384.461 323.238 385.454 320.8 385.454 318.16H373.454ZM373.778 316.975C374.073 316.631 374.464 316.347 374.889 316.172C375.288 316.008 375.568 316 375.614 316V328C378.167 328 380.888 327.12 382.889 324.785L373.778 316.975ZM375.614 316H360.414V328H375.614V316ZM379.134 268.96H402.494V256.96H379.134V268.96ZM402.494 268.96C409.539 268.96 415.9 267.323 420.674 263.164L412.793 254.116C410.954 255.717 407.822 256.96 402.494 256.96V268.96ZM420.755 263.093C425.666 258.657 427.694 252.45 427.694 245.52H415.694C415.694 250.11 414.415 252.649 412.712 254.187L420.755 263.093ZM427.694 245.52C427.694 238.959 425.751 233.085 421.368 228.55L412.74 236.89C414.543 238.755 415.694 241.414 415.694 245.52H427.694ZM421.435 228.621C416.77 223.634 409.996 221.76 402.494 221.76V233.76C408.218 233.76 411.15 235.192 412.672 236.819L421.435 228.621ZM402.494 221.76H379.134V233.76H402.494V221.76ZM373.134 227.76V262.96H385.134V227.76H373.134Z" fill="white"/>
<path d="M474.5 360L480.847 378.248L498 385L480.847 391.752L474.5 410L468.153 391.752L451 385L468.153 378.248L474.5 360Z" fill="url(#paint1_linear_361_588)"/>
<defs>
<filter id="filter0_dd_361_588" x="0.767944" y="121.56" width="505.645" height="162.08" filterUnits="userSpaceOnUse" color-interpolation-filters="sRGB">
<feFlood flood-opacity="0" result="BackgroundImageFix"/>
<feColorMatrix in="SourceAlpha" type="matrix" values="0 0 0 0 0 0 0 0 0 0 0 0 0 0 0 0 0 0 127 0" result="hardAlpha"/>
<feOffset dx="10" dy="16"/>
<feGaussianBlur stdDeviation="6"/>
<feComposite in2="hardAlpha" operator="out"/>
<feColorMatrix type="matrix" values="0 0 0 0 0 0 0 0 0 0 0 0 0 0 0 0 0 0 1 0"/>
<feBlend mode="normal" in2="BackgroundImageFix" result="effect1_dropShadow_361_588"/>
<feColorMatrix in="SourceAlpha" type="matrix" values="0 0 0 0 0 0 0 0 0 0 0 0 0 0 0 0 0 0 127 0" result="hardAlpha"/>
<feOffset dx="10" dy="16"/>
<feGaussianBlur stdDeviation="6"/>
<feComposite in2="hardAlpha" operator="out"/>
<feColorMatrix type="matrix" values="0 0 0 0 0 0 0 0 0 0 0 0 0 0 0 0 0 0 1 0"/>
<feBlend mode="normal" in2="effect1_dropShadow_361_588" result="effect2_dropShadow_361_588"/>
<feBlend mode="normal" in="SourceGraphic" in2="effect2_dropShadow_361_588" result="shape"/>
</filter>
<filter id="filter1_d_361_588" x="0.624023" y="0.560059" width="546.025" height="76.0798" filterUnits="userSpaceOnUse" color-interpolation-filters="sRGB">
<feFlood flood-opacity="0" result="BackgroundImageFix"/>
<feColorMatrix in="SourceAlpha" type="matrix" values="0 0 0 0 0 0 0 0 0 0 0 0 0 0 0 0 0 0 127 0" result="hardAlpha"/>
<feOffset dx="10" dy="16"/>
<feGaussianBlur stdDeviation="7"/>
<feComposite in2="hardAlpha" operator="out"/>
<feColorMatrix type="matrix" values="0 0 0 0 0 0 0 0 0 0 0 0 0 0 0 0 0 0 1 0"/>
<feBlend mode="normal" in2="BackgroundImageFix" result="effect1_dropShadow_361_588"/>
<feBlend mode="normal" in="SourceGraphic" in2="effect1_dropShadow_361_588" result="shape"/>
</filter>
<radialGradient id="paint0_radial_361_588" cx="0" cy="0" r="1" gradientUnits="userSpaceOnUse" gradientTransform="translate(308.594 362.129) rotate(-98.816) scale(149.226 653.357)">
<stop stop-color="white"/>
<stop offset="0.898764" stop-color="white" stop-opacity="0"/>
</radialGradient>
<linearGradient id="paint1_linear_361_588" x1="474.5" y1="360" x2="474.5" y2="410" gradientUnits="userSpaceOnUse">
<stop stop-color="white"/>
<stop offset="1" stop-color="#182FFF" stop-opacity="0.72"/>
</linearGradient>
</defs>
</svg>
