<svg width="131" height="16" viewBox="0 0 131 16" fill="none" xmlns="http://www.w3.org/2000/svg">
<rect width="9.68996" height="17.1754" transform="matrix(1 0 -0.363576 0.931564 6.24463 0)" fill="#EF5CD8"/>
<rect width="9.68996" height="17.1754" transform="matrix(1 0 -0.363576 0.931564 20.5642 0)" fill="#EF5CD8"/>
<rect width="9.68996" height="17.1754" transform="matrix(1 0 -0.363576 0.931564 34.8835 0)" fill="#EF5CD8"/>
<rect width="9.68996" height="17.1754" transform="matrix(1 0 -0.363576 0.931564 49.2031 0)" fill="#EF5CD8"/>
<rect width="9.68996" height="17.1754" transform="matrix(1 0 -0.363576 0.931564 63.5227 0)" fill="#EF5CD8"/>
<rect width="9.68996" height="17.1754" transform="matrix(1 0 -0.363576 0.931564 77.8423 0)" fill="#EF5CD8"/>
<rect width="9.68996" height="17.1754" transform="matrix(1 0 -0.363576 0.931564 92.1616 0)" fill="#EF5CD8"/>
<rect width="9.68996" height="17.1754" transform="matrix(1 0 -0.363576 0.931564 106.481 0)" fill="#EF5CD8"/>
<rect width="9.68996" height="17.1754" transform="matrix(1 0 -0.363576 0.931564 120.801 0)" fill="#EF5CD8"/>
</svg>
