<svg width="884" height="225" viewBox="0 0 884 225" fill="none" xmlns="http://www.w3.org/2000/svg">
<path d="M82.12 57.68H88.12V51.68H82.12V57.68ZM49.8 56.56L54.0427 52.3174L54.0426 52.3173L49.8 56.56ZM49.8 39.12L54.0426 43.3626L54.0427 43.3626L49.8 39.12ZM104.68 57.68V51.68H98.68V57.68H104.68ZM85.96 144C86.1411 144 86.4317 144.035 86.7645 144.172C87.0985 144.309 87.3394 144.494 87.4826 144.637L78.9974 153.123C80.882 155.007 83.3202 156 85.96 156V144ZM87.4826 144.637C87.6259 144.781 87.8105 145.021 87.9481 145.355C88.0851 145.688 88.12 145.979 88.12 146.16H76.12C76.12 148.8 77.1127 151.238 78.9974 153.123L87.4826 144.637ZM88.12 146.16V57.68H76.12V146.16H88.12ZM82.12 51.68H52.52V63.68H82.12V51.68ZM52.52 51.68C52.7011 51.68 52.9917 51.7149 53.3245 51.8519C53.6585 51.9895 53.8994 52.1741 54.0427 52.3174L45.5574 60.8026C47.442 62.6873 49.8802 63.68 52.52 63.68V51.68ZM54.0426 52.3173C54.1859 52.4606 54.3705 52.7015 54.5081 53.0355C54.6451 53.3683 54.68 53.6589 54.68 53.84H42.68C42.68 56.4798 43.6727 58.918 45.5574 60.8026L54.0426 52.3173ZM54.68 53.84V42H42.68V53.84H54.68ZM54.68 42C54.68 42.0547 54.6698 42.2718 54.552 42.5747C54.4295 42.8899 54.2424 43.1629 54.0426 43.3626L45.5574 34.8773C43.5555 36.8792 42.68 39.4292 42.68 42H54.68ZM54.0427 43.3626C53.8994 43.5059 53.6585 43.6905 53.3245 43.8281C52.9917 43.9651 52.7011 44 52.52 44V32C49.8802 32 47.442 32.9927 45.5574 34.8774L54.0427 43.3626ZM52.52 44H134.12V32H52.52V44ZM134.12 44C134.065 44 133.848 43.9898 133.545 43.872C133.23 43.7494 132.957 43.5624 132.757 43.3626L141.243 34.8774C139.241 32.8755 136.691 32 134.12 32V44ZM132.757 43.3626C132.558 43.1628 132.371 42.8899 132.248 42.5747C132.13 42.2718 132.12 42.0547 132.12 42H144.12C144.12 39.4292 143.245 36.8792 141.243 34.8774L132.757 43.3626ZM132.12 42V53.84H144.12V42H132.12ZM132.12 53.84C132.12 53.6589 132.155 53.3683 132.292 53.0355C132.429 52.7015 132.614 52.4606 132.757 52.3174L141.243 60.8026C143.127 58.918 144.12 56.4798 144.12 53.84H132.12ZM132.757 52.3174C132.957 52.1176 133.23 51.9305 133.545 51.808C133.848 51.6902 134.065 51.68 134.12 51.68V63.68C136.691 63.68 139.241 62.8045 141.243 60.8026L132.757 52.3174ZM134.12 51.68H104.68V63.68H134.12V51.68ZM98.68 57.68V146.16H110.68V57.68H98.68ZM98.68 146.16C98.68 145.979 98.7149 145.688 98.8519 145.355C98.9895 145.021 99.1741 144.781 99.3174 144.637L107.803 153.123C109.687 151.238 110.68 148.8 110.68 146.16H98.68ZM99.3174 144.637C99.5171 144.438 99.7901 144.251 100.105 144.128C100.408 144.01 100.625 144 100.68 144V156C103.251 156 105.801 155.125 107.803 153.123L99.3174 144.637ZM100.68 144H85.96V156H100.68V144ZM133.356 149.04L129.114 153.283L129.277 153.446L129.451 153.596L133.356 149.04ZM132.716 145.2L138.287 147.428L138.313 147.364L138.337 147.3L132.716 145.2ZM171.276 42L176.897 44.1001L176.966 43.9142L177.023 43.7241L171.276 42ZM173.036 39.28L176.987 43.7955L177.005 43.78L177.022 43.7644L173.036 39.28ZM197.996 39.28L193.754 43.5226L193.895 43.6639L194.045 43.7955L197.996 39.28ZM199.916 42L205.537 39.8999L205.513 39.8355L205.487 39.7717L199.916 42ZM238.476 145.2L244.36 144.023L244.265 143.551L244.097 143.1L238.476 145.2ZM237.676 149.04L241.919 153.283L241.919 153.283L237.676 149.04ZM218.156 149.04L213.601 152.945L213.901 153.295L214.252 153.596L218.156 149.04ZM216.876 146.96L222.568 145.063L222.525 144.932L222.475 144.803L216.876 146.96ZM209.356 127.44L214.955 125.283L213.475 121.44H209.356V127.44ZM161.836 127.44V121.44H157.718L156.237 125.283L161.836 127.44ZM154.316 146.96L148.717 144.803L148.668 144.932L148.624 145.063L154.316 146.96ZM152.876 149.04L148.634 144.797H148.634L152.876 149.04ZM167.436 109.04L161.801 106.979L158.853 115.04H167.436V109.04ZM203.756 109.04V115.04H212.365L209.385 106.963L203.756 109.04ZM185.516 59.6L191.145 57.5232L185.491 42.1981L179.881 57.5393L185.516 59.6ZM135.756 144C136.1 144 136.443 144.068 136.745 144.189C137.035 144.305 137.204 144.436 137.261 144.484L129.451 153.596C131.11 155.017 133.255 156 135.756 156V144ZM137.599 144.797C137.824 145.022 138.05 145.339 138.207 145.732C138.361 146.117 138.396 146.444 138.396 146.64H126.396C126.396 149.084 127.275 151.444 129.114 153.283L137.599 144.797ZM138.396 146.64C138.396 147.191 138.265 147.484 138.287 147.428L127.145 142.972C126.741 143.983 126.396 145.236 126.396 146.64H138.396ZM138.337 147.3L176.897 44.1001L165.656 39.8999L127.096 143.1L138.337 147.3ZM177.023 43.7241C177.025 43.7174 177.024 43.7221 177.018 43.735C177.012 43.748 177.004 43.7636 176.994 43.7795C176.983 43.7954 176.975 43.806 176.971 43.8107C176.967 43.8152 176.971 43.8098 176.987 43.7955L169.085 34.7645C167.399 36.24 166.18 38.1078 165.529 40.2759L177.023 43.7241ZM177.022 43.7644C176.951 43.8283 176.872 43.8843 176.793 43.9295C176.715 43.9743 176.651 43.9995 176.614 44.0121C176.54 44.0365 176.605 44 176.876 44V32C174.182 32 171.36 32.7425 169.05 34.7955L177.022 43.7644ZM176.876 44H194.316V32H176.876V44ZM194.316 44C194.595 44 194.613 44.0385 194.465 43.987C194.388 43.96 194.274 43.9115 194.142 43.8299C194.008 43.7476 193.875 43.6442 193.754 43.5226L202.239 35.0374C199.93 32.7289 196.971 32 194.316 32V44ZM194.045 43.7955C194.176 43.9098 194.266 44.0292 194.345 44.2283L205.487 39.7717C204.713 37.8375 203.523 36.1435 201.947 34.7645L194.045 43.7955ZM194.296 44.1001L232.856 147.3L244.097 143.1L205.537 39.8999L194.296 44.1001ZM232.593 146.377C232.616 146.494 232.628 146.575 232.633 146.623C232.638 146.671 232.636 146.675 232.636 146.64H244.636C244.636 145.728 244.524 144.844 244.36 144.023L232.593 146.377ZM232.636 146.64C232.636 146.444 232.671 146.117 232.825 145.732C232.982 145.339 233.209 145.022 233.434 144.797L241.919 153.283C243.758 151.444 244.636 149.084 244.636 146.64H232.636ZM233.434 144.797C233.592 144.639 233.869 144.418 234.273 144.245C234.684 144.069 235.092 144 235.436 144V156C237.985 156 240.229 154.972 241.919 153.283L233.434 144.797ZM235.436 144H221.516V156H235.436V144ZM221.516 144C221.179 144 221.102 143.962 221.205 143.991C221.324 144.025 221.668 144.148 222.061 144.484L214.252 153.596C216.527 155.546 219.305 156 221.516 156V144ZM222.712 145.135C222.636 145.046 222.579 144.974 222.538 144.919C222.496 144.863 222.474 144.829 222.466 144.815C222.458 144.802 222.467 144.815 222.485 144.854C222.504 144.892 222.535 144.962 222.568 145.063L211.184 148.857C211.728 150.489 212.667 151.855 213.601 152.945L222.712 145.135ZM222.475 144.803L214.955 125.283L203.757 129.597L211.277 149.117L222.475 144.803ZM209.356 121.44H161.836V133.44H209.356V121.44ZM156.237 125.283L148.717 144.803L159.915 149.117L167.435 129.597L156.237 125.283ZM148.624 145.063C148.681 144.892 148.74 144.764 148.783 144.682C148.826 144.6 148.857 144.554 148.863 144.545C148.87 144.535 148.858 144.554 148.819 144.599C148.78 144.645 148.72 144.711 148.634 144.797L157.119 153.283C158.189 152.212 159.38 150.742 160.008 148.857L148.624 145.063ZM148.634 144.797C149.16 144.271 149.671 144.073 149.872 144.013C150.052 143.959 150.024 144 149.676 144V156C151.779 156 154.811 155.591 157.119 153.283L148.634 144.797ZM149.676 144H135.756V156H149.676V144ZM167.436 115.04H203.756V103.04H167.436V115.04ZM209.385 106.963L191.145 57.5232L179.887 61.6768L198.127 111.117L209.385 106.963ZM179.881 57.5393L161.801 106.979L173.071 111.101L191.151 61.6607L179.881 57.5393ZM254.694 148.88L250.451 153.123V153.123L254.694 148.88ZM254.694 39.12L258.936 43.3626L258.936 43.3626L254.694 39.12ZM322.054 42L319.679 47.5099L319.719 47.5273L319.76 47.5441L322.054 42ZM336.454 53.84L331.4 57.0743L331.415 57.0976L331.43 57.1207L336.454 53.84ZM336.454 93.36L341.446 96.6882L341.462 96.6645L341.477 96.6407L336.454 93.36ZM322.054 104.88L324.348 110.424L322.054 104.88ZM276.454 108.72V102.72H270.454V108.72H276.454ZM275.334 148.88L271.091 144.637L270.928 144.8L270.778 144.975L275.334 148.88ZM276.134 90.96H270.134V96.96H276.134V90.96ZM313.734 86.64L317.674 91.1645L317.715 91.1289L317.755 91.0926L313.734 86.64ZM314.054 60.72L309.672 64.8189L309.706 64.8548L309.74 64.8901L314.054 60.72ZM276.134 55.76V49.76H270.134V55.76H276.134ZM257.414 144C257.595 144 257.885 144.035 258.218 144.172C258.552 144.309 258.793 144.494 258.936 144.637L250.451 153.123C252.336 155.007 254.774 156 257.414 156V144ZM258.936 144.637C259.08 144.781 259.264 145.021 259.402 145.355C259.539 145.688 259.574 145.979 259.574 146.16H247.574C247.574 148.8 248.566 151.238 250.451 153.123L258.936 144.637ZM259.574 146.16V42H247.574V146.16H259.574ZM259.574 42C259.574 42.0547 259.564 42.2718 259.446 42.5747C259.323 42.8899 259.136 43.1629 258.936 43.3626L250.451 34.8773C248.449 36.8792 247.574 39.4292 247.574 42H259.574ZM258.936 43.3626C258.793 43.5059 258.552 43.6905 258.218 43.8281C257.885 43.9651 257.595 44 257.414 44V32C254.774 32 252.336 32.9927 250.451 34.8774L258.936 43.3626ZM257.414 44H300.294V32H257.414V44ZM300.294 44C307.983 44 314.396 45.233 319.679 47.5099L324.429 36.4901C317.338 33.4336 309.244 32 300.294 32V44ZM319.76 47.5441C324.881 49.6632 328.688 52.8362 331.4 57.0743L341.507 50.6057C337.393 44.1772 331.6 39.4568 324.348 36.4559L319.76 47.5441ZM331.43 57.1207C334.057 61.1432 335.574 66.485 335.574 73.52H347.574C347.574 64.7683 345.677 56.9901 341.477 50.5593L331.43 57.1207ZM335.574 73.52C335.574 80.68 334.049 86.0688 331.43 90.0793L341.477 96.6407C345.685 90.1978 347.574 82.36 347.574 73.52H335.574ZM331.461 90.0318C328.766 94.0747 324.948 97.1889 319.76 99.3359L324.348 110.424C331.533 107.451 337.315 102.885 341.446 96.6882L331.461 90.0318ZM319.76 99.3359C314.454 101.531 308.011 102.72 300.294 102.72V114.72C309.216 114.72 317.281 113.349 324.348 110.424L319.76 99.3359ZM300.294 102.72H276.454V114.72H300.294V102.72ZM270.454 108.72V146.16H282.454V108.72H270.454ZM270.454 146.16C270.454 145.979 270.489 145.688 270.626 145.355C270.763 145.021 270.948 144.781 271.091 144.637L279.576 153.123C281.461 151.238 282.454 148.8 282.454 146.16H270.454ZM270.778 144.975C271.073 144.631 271.464 144.347 271.889 144.172C272.288 144.008 272.568 144 272.614 144V156C275.167 156 277.888 155.12 279.889 152.785L270.778 144.975ZM272.614 144H257.414V156H272.614V144ZM276.134 96.96H299.494V84.96H276.134V96.96ZM299.494 96.96C306.539 96.96 312.9 95.3228 317.674 91.1645L309.793 82.1155C307.954 83.7172 304.822 84.96 299.494 84.96V96.96ZM317.755 91.0926C322.666 86.6572 324.694 80.4498 324.694 73.52H312.694C312.694 78.1102 311.415 80.6494 309.712 82.1874L317.755 91.0926ZM324.694 73.52C324.694 66.9593 322.751 61.0846 318.368 56.5499L309.74 64.8901C311.543 66.7554 312.694 69.414 312.694 73.52H324.694ZM318.435 56.6211C313.77 51.6343 306.996 49.76 299.494 49.76V61.76C305.218 61.76 308.15 63.1923 309.672 64.8189L318.435 56.6211ZM299.494 49.76H276.134V61.76H299.494V49.76ZM270.134 55.76V90.96H282.134V55.76H270.134ZM409.931 146.48L407.182 151.813L407.231 151.838L407.281 151.863L409.931 146.48ZM394.251 131.6L389.01 134.521L389.021 134.54L389.031 134.558L394.251 131.6ZM388.171 108.24L382.173 108.386L382.175 108.454L382.178 108.522L388.171 108.24ZM388.171 79.76L382.178 79.4746L382.175 79.5475L382.173 79.6205L388.171 79.76ZM394.251 56.56L389.047 53.574L389.029 53.6063L389.01 53.6388L394.251 56.56ZM410.091 41.68L412.775 47.0466L412.791 47.0383L412.807 47.03L410.091 41.68ZM469.451 47.28L465.586 51.8695L465.622 51.8996L465.659 51.9292L469.451 47.28ZM478.891 58.96L484.258 56.2767V56.2767L478.891 58.96ZM482.411 73.52L476.413 73.6424L476.418 73.9133L476.448 74.1826L482.411 73.52ZM481.451 75.92L477.547 71.3644L477.372 71.5144L477.209 71.6774L481.451 75.92ZM460.971 76.08L457.066 80.6355L457.268 80.8082L457.484 80.9624L460.971 76.08ZM459.371 73.04L465.218 71.6908L465.21 71.6586L465.202 71.6264L459.371 73.04ZM450.571 58.64L453.716 53.53L450.571 58.64ZM417.931 60.88L422.005 65.2846L422.035 65.2575L422.064 65.23L417.931 60.88ZM411.051 80.56L417.047 80.7794L417.048 80.7692L411.051 80.56ZM411.051 107.44L417.048 107.231L411.051 107.44ZM417.931 127.28L413.799 131.63L413.828 131.657L413.857 131.685L417.931 127.28ZM450.571 129.36L453.716 134.47L453.763 134.441L453.809 134.411L450.571 129.36ZM459.371 114.96L465.197 116.394L465.219 116.306L465.238 116.217L459.371 114.96ZM460.971 111.92L457.484 107.038V107.038L460.971 111.92ZM481.451 112.08L477.209 116.323L477.372 116.486L477.547 116.636L481.451 112.08ZM482.411 114.48L476.448 113.817L476.418 114.087L476.413 114.358L482.411 114.48ZM478.891 129.04L484.258 131.723L478.891 129.04ZM469.451 140.88L473.244 145.529L473.28 145.5L473.316 145.469L469.451 140.88ZM454.731 148.72L452.834 143.028L454.731 148.72ZM435.211 145.6C425.958 145.6 418.49 144.006 412.581 141.097L407.281 151.863C415.239 155.781 424.624 157.6 435.211 157.6V145.6ZM412.681 141.147C406.843 138.137 402.497 133.981 399.471 128.642L389.031 134.558C393.259 142.019 399.366 147.783 407.182 151.813L412.681 141.147ZM399.492 128.679C396.405 123.14 394.557 116.298 394.165 107.958L382.178 108.522C382.639 118.316 384.844 127.047 389.01 134.521L399.492 128.679ZM394.169 108.094C394.064 103.776 394.011 99.1314 394.011 94.16H382.011C382.011 99.2152 382.065 103.958 382.173 108.386L394.169 108.094ZM394.011 94.16C394.011 89.189 394.064 84.4356 394.17 79.8995L382.173 79.6205C382.065 84.2577 382.011 89.1044 382.011 94.16H394.011ZM394.164 80.0454C394.556 71.8236 396.399 65.0303 399.492 59.4811L389.01 53.6388C384.85 61.103 382.64 69.7764 382.178 79.4746L394.164 80.0454ZM399.455 59.546C402.59 54.0825 406.985 49.9415 412.775 47.0466L407.408 36.3134C399.545 40.2451 393.379 46.0242 389.047 53.574L399.455 59.546ZM412.807 47.03C418.708 44.0345 426.101 42.4 435.211 42.4V30.4C424.695 30.4 415.342 32.2855 407.375 36.33L412.807 47.03ZM435.211 42.4C441.941 42.4 447.791 43.2913 452.834 44.9721L456.629 33.5879C450.151 31.4287 442.988 30.4 435.211 30.4V42.4ZM452.834 44.9721C457.978 46.6868 462.192 49.0106 465.586 51.8695L473.316 42.6905C468.604 38.7227 463.004 35.7132 456.629 33.5879L452.834 44.9721ZM465.659 51.9292C469.084 54.7236 471.681 57.9563 473.525 61.6433L484.258 56.2767C481.621 51.0037 477.925 46.4497 473.244 42.6308L465.659 51.9292ZM473.525 61.6433C475.349 65.2921 476.323 69.2658 476.413 73.6424L488.41 73.3976C488.286 67.3209 486.913 61.5878 484.258 56.2767L473.525 61.6433ZM476.448 74.1826C476.406 73.8019 476.431 73.2347 476.68 72.6117C476.928 71.993 477.29 71.5846 477.547 71.3644L485.356 80.4755C487.577 78.5719 488.705 75.8327 488.375 72.8574L476.448 74.1826ZM477.209 71.6774C477.434 71.4523 477.751 71.2261 478.143 71.0691C478.528 70.915 478.855 70.88 479.051 70.88V82.88C481.495 82.88 483.855 82.0014 485.694 80.1626L477.209 71.6774ZM479.051 70.88H463.851V82.88H479.051V70.88ZM463.851 70.88C463.714 70.88 463.731 70.8639 463.857 70.8989C463.994 70.9369 464.215 71.0236 464.459 71.1976L457.484 80.9624C459.499 82.4021 461.777 82.88 463.851 82.88V70.88ZM464.876 71.5245C465.164 71.7716 465.292 71.9904 465.321 72.0455C465.344 72.0902 465.288 71.9975 465.218 71.6908L453.525 74.3892C454.009 76.4875 454.998 78.8628 457.066 80.6355L464.876 71.5245ZM465.202 71.6264C463.301 63.7848 459.755 57.2465 453.716 53.53L447.427 63.7499C449.707 65.1535 452.028 68.2152 453.54 74.4536L465.202 71.6264ZM453.716 53.53C448.388 50.2517 442.055 48.8 435.051 48.8V60.8C440.42 60.8 444.434 61.9083 447.427 63.7499L453.716 53.53ZM435.051 48.8C426.715 48.8 419.41 51.1992 413.799 56.53L422.064 65.23C424.986 62.4541 429.094 60.8 435.051 60.8V48.8ZM413.857 56.4754C407.89 61.9952 405.399 70.4759 405.055 80.3508L417.048 80.7692C417.343 72.2974 419.439 67.6582 422.005 65.2846L413.857 56.4754ZM405.055 80.3406C404.73 89.2368 404.73 98.3399 405.055 107.649L417.048 107.231C416.732 98.1934 416.733 89.3765 417.047 80.7794L405.055 80.3406ZM405.055 107.649C405.4 117.541 407.895 126.022 413.799 131.63L422.064 122.93C419.434 120.432 417.343 115.686 417.048 107.231L405.055 107.649ZM413.857 131.685C419.474 136.88 426.758 139.2 435.051 139.2V127.2C429.051 127.2 424.922 125.573 422.005 122.875L413.857 131.685ZM435.051 139.2C442.055 139.2 448.388 137.748 453.716 134.47L447.427 124.25C444.434 126.092 440.42 127.2 435.051 127.2V139.2ZM453.809 134.411C459.741 130.609 463.286 124.159 465.197 116.394L453.545 113.526C452.043 119.627 449.721 122.778 447.333 124.309L453.809 134.411ZM465.238 116.217C465.319 115.84 465.378 115.766 465.321 115.874C465.257 115.995 465.013 116.407 464.459 116.802L457.484 107.038C454.932 108.86 453.943 111.654 453.504 113.703L465.238 116.217ZM464.459 116.802C464.215 116.976 463.994 117.063 463.857 117.101C463.731 117.136 463.714 117.12 463.851 117.12V105.12C461.777 105.12 459.499 105.598 457.484 107.038L464.459 116.802ZM463.851 117.12H479.051V105.12H463.851V117.12ZM479.051 117.12C478.855 117.12 478.528 117.085 478.143 116.931C477.751 116.774 477.434 116.548 477.209 116.323L485.694 107.837C483.855 105.999 481.495 105.12 479.051 105.12V117.12ZM477.547 116.636C477.29 116.415 476.928 116.007 476.68 115.388C476.431 114.765 476.406 114.198 476.448 113.817L488.375 115.143C488.705 112.167 487.577 109.428 485.356 107.524L477.547 116.636ZM476.413 114.358C476.323 118.734 475.349 122.708 473.525 126.357L484.258 131.723C486.913 126.412 488.286 120.679 488.41 114.602L476.413 114.358ZM473.525 126.357C471.671 130.064 469.051 133.373 465.586 136.291L473.316 145.469C477.958 141.561 481.631 136.976 484.258 131.723L473.525 126.357ZM465.659 136.231C462.251 139.01 458.013 141.301 452.834 143.028L456.629 154.412C462.969 152.299 468.545 149.363 473.244 145.529L465.659 136.231ZM452.834 143.028C447.791 144.709 441.941 145.6 435.211 145.6V157.6C442.988 157.6 450.151 156.571 456.629 154.412L452.834 143.028ZM502.506 149.04L498.264 153.283L498.427 153.446L498.602 153.596L502.506 149.04ZM502.506 39.12L506.749 43.3626L506.749 43.3626L502.506 39.12ZM522.506 39.12L517.951 43.0247L518.101 43.1997L518.264 43.3626L522.506 39.12ZM523.626 83.28H517.626V89.28H523.626V83.28ZM570.826 83.28V89.28H576.826V83.28H570.826ZM571.946 39.12L576.189 43.3627V43.3626L571.946 39.12ZM591.946 148.88L596.189 153.123V153.123L591.946 148.88ZM571.946 148.88L576.189 144.637V144.637L571.946 148.88ZM570.826 103.28H576.826V97.28H570.826V103.28ZM523.626 103.28V97.28H517.626V103.28H523.626ZM522.506 148.88L518.264 144.637L518.101 144.8L517.951 144.975L522.506 148.88ZM505.226 144C505.299 144 505.489 144.012 505.743 144.102C506.004 144.194 506.235 144.334 506.411 144.484L498.602 153.596C500.531 155.249 502.858 156 505.226 156V144ZM506.749 144.797C506.949 144.997 507.136 145.27 507.258 145.585C507.376 145.888 507.386 146.105 507.386 146.16H495.386C495.386 148.731 496.262 151.281 498.264 153.283L506.749 144.797ZM507.386 146.16V42H495.386V146.16H507.386ZM507.386 42C507.386 42.0547 507.376 42.2718 507.258 42.5747C507.136 42.8899 506.949 43.1629 506.749 43.3626L498.264 34.8773C496.262 36.8792 495.386 39.4292 495.386 42H507.386ZM506.749 43.3626C506.606 43.5059 506.365 43.6905 506.031 43.8281C505.698 43.9651 505.407 44 505.226 44V32C502.586 32 500.148 32.9927 498.264 34.8774L506.749 43.3626ZM505.226 44H519.786V32H505.226V44ZM519.786 44C519.74 44 519.461 43.9923 519.062 43.8281C518.636 43.6528 518.245 43.3686 517.951 43.0247L527.062 35.2153C525.06 32.8801 522.339 32 519.786 32V44ZM518.264 43.3626C518.064 43.1629 517.877 42.8899 517.754 42.5747C517.636 42.2718 517.626 42.0547 517.626 42H529.626C529.626 39.4292 528.751 36.8792 526.749 34.8773L518.264 43.3626ZM517.626 42V83.28H529.626V42H517.626ZM523.626 89.28H570.826V77.28H523.626V89.28ZM576.826 83.28V42H564.826V83.28H576.826ZM576.826 42C576.826 42.0547 576.816 42.2718 576.698 42.5747C576.576 42.8899 576.389 43.1629 576.189 43.3627L567.704 34.8773C565.702 36.8792 564.826 39.4292 564.826 42H576.826ZM576.189 43.3626C576.046 43.5059 575.805 43.6905 575.471 43.8281C575.138 43.9651 574.847 44 574.666 44V32C572.026 32 569.588 32.9927 567.704 34.8774L576.189 43.3626ZM574.666 44H589.066V32H574.666V44ZM589.066 44C589.012 44 588.794 43.9898 588.492 43.872C588.176 43.7494 587.903 43.5624 587.704 43.3626L596.189 34.8774C594.187 32.8755 591.637 32 589.066 32V44ZM587.704 43.3626C587.504 43.1628 587.317 42.8899 587.194 42.5747C587.076 42.2718 587.066 42.0547 587.066 42H599.066C599.066 39.4292 598.191 36.8792 596.189 34.8774L587.704 43.3626ZM587.066 42V146.16H599.066V42H587.066ZM587.066 146.16C587.066 145.979 587.101 145.688 587.238 145.356C587.376 145.022 587.56 144.781 587.704 144.637L596.189 153.123C598.074 151.238 599.066 148.8 599.066 146.16H587.066ZM587.704 144.637C587.903 144.438 588.176 144.251 588.492 144.128C588.794 144.01 589.012 144 589.066 144V156C591.637 156 594.187 155.125 596.189 153.123L587.704 144.637ZM589.066 144H574.666V156H589.066V144ZM574.666 144C574.847 144 575.138 144.035 575.471 144.172C575.805 144.309 576.046 144.494 576.189 144.637L567.704 153.123C569.588 155.007 572.026 156 574.666 156V144ZM576.189 144.637C576.332 144.781 576.517 145.021 576.654 145.355C576.791 145.688 576.826 145.979 576.826 146.16H564.826C564.826 148.8 565.819 151.238 567.704 153.123L576.189 144.637ZM576.826 146.16V103.28H564.826V146.16H576.826ZM570.826 97.28H523.626V109.28H570.826V97.28ZM517.626 103.28V146.16H529.626V103.28H517.626ZM517.626 146.16C517.626 145.979 517.661 145.688 517.798 145.355C517.936 145.021 518.12 144.781 518.264 144.637L526.749 153.123C528.634 151.238 529.626 148.8 529.626 146.16H517.626ZM517.951 144.975C518.245 144.631 518.636 144.347 519.062 144.172C519.461 144.008 519.74 144 519.786 144V156C522.339 156 525.06 155.12 527.062 152.785L517.951 144.975ZM519.786 144H505.226V156H519.786V144ZM619.069 148.88L614.826 153.123V153.123L619.069 148.88ZM619.069 39.12L623.311 43.3626V43.3626L619.069 39.12ZM695.069 39.12L690.826 43.3626V43.3627L695.069 39.12ZM639.549 56.4V50.4H633.549V56.4H639.549ZM639.549 84.72H633.549V90.72H639.549V84.72ZM691.549 85.84L687.306 90.0826L687.469 90.2456L687.644 90.3955L691.549 85.84ZM691.549 101.36L695.453 105.916L695.628 105.766L695.791 105.603L691.549 101.36ZM639.549 102.32V96.32H633.549V102.32H639.549ZM639.549 131.6H633.549V137.6H639.549V131.6ZM696.349 132.72L692.106 136.963L692.106 136.963L696.349 132.72ZM696.349 148.88L692.106 144.637L692.106 144.637L696.349 148.88ZM621.789 144C621.97 144 622.26 144.035 622.593 144.172C622.927 144.309 623.168 144.494 623.311 144.637L614.826 153.123C616.711 155.007 619.149 156 621.789 156V144ZM623.311 144.637C623.455 144.781 623.639 145.021 623.777 145.355C623.914 145.688 623.949 145.979 623.949 146.16H611.949C611.949 148.8 612.941 151.238 614.826 153.123L623.311 144.637ZM623.949 146.16V42H611.949V146.16H623.949ZM623.949 42C623.949 42.0547 623.939 42.2718 623.821 42.5747C623.698 42.8899 623.511 43.1629 623.311 43.3626L614.826 34.8773C612.824 36.8792 611.949 39.4292 611.949 42H623.949ZM623.311 43.3626C623.168 43.5059 622.927 43.6905 622.593 43.8281C622.26 43.9651 621.97 44 621.789 44V32C619.149 32 616.711 32.9927 614.826 34.8774L623.311 43.3626ZM621.789 44H692.189V32H621.789V44ZM692.189 44C692.134 44 691.917 43.9898 691.614 43.872C691.299 43.7494 691.026 43.5624 690.826 43.3626L699.311 34.8774C697.31 32.8755 694.76 32 692.189 32V44ZM690.826 43.3627C690.626 43.1629 690.439 42.8899 690.317 42.5747C690.199 42.2718 690.189 42.0547 690.189 42H702.189C702.189 39.4292 701.313 36.8792 699.311 34.8773L690.826 43.3627ZM690.189 42V52.56H702.189V42H690.189ZM690.189 52.56C690.189 52.3789 690.224 52.0883 690.361 51.7555C690.498 51.4215 690.683 51.1806 690.826 51.0374L699.311 59.5226C701.196 57.638 702.189 55.1998 702.189 52.56H690.189ZM690.826 51.0374C691.026 50.8376 691.299 50.6505 691.614 50.528C691.917 50.4102 692.134 50.4 692.189 50.4V62.4C694.76 62.4 697.31 61.5245 699.311 59.5226L690.826 51.0374ZM692.189 50.4H639.549V62.4H692.189V50.4ZM633.549 56.4V84.72H645.549V56.4H633.549ZM639.549 90.72H688.669V78.72H639.549V90.72ZM688.669 90.72C688.614 90.72 688.397 90.7098 688.094 90.592C687.779 90.4695 687.506 90.2824 687.306 90.0826L695.791 81.5973C693.789 79.5955 691.24 78.72 688.669 78.72V90.72ZM687.644 90.3955C687.3 90.1008 687.016 89.71 686.841 89.2845C686.676 88.8856 686.669 88.6062 686.669 88.56H698.669C698.669 86.0071 697.789 83.2861 695.453 81.2845L687.644 90.3955ZM686.669 88.56V98.48H698.669V88.56H686.669ZM686.669 98.48C686.669 98.4253 686.679 98.2082 686.797 97.9053C686.919 97.5901 687.106 97.3172 687.306 97.1174L695.791 105.603C697.793 103.601 698.669 101.051 698.669 98.48H686.669ZM687.644 96.8045C687.877 96.6046 688.137 96.4661 688.371 96.3879C688.592 96.3144 688.711 96.32 688.669 96.32V108.32C690.984 108.32 693.418 107.66 695.453 105.916L687.644 96.8045ZM688.669 96.32H639.549V108.32H688.669V96.32ZM633.549 102.32V131.6H645.549V102.32H633.549ZM639.549 137.6H693.469V125.6H639.549V137.6ZM693.469 137.6C693.414 137.6 693.197 137.59 692.894 137.472C692.579 137.349 692.306 137.162 692.106 136.963L700.591 128.477C698.59 126.475 696.04 125.6 693.469 125.6V137.6ZM692.106 136.963C691.906 136.763 691.719 136.49 691.597 136.175C691.479 135.872 691.469 135.655 691.469 135.6H703.469C703.469 133.029 702.593 130.479 700.591 128.477L692.106 136.963ZM691.469 135.6V146.16H703.469V135.6H691.469ZM691.469 146.16C691.469 145.979 691.504 145.688 691.641 145.355C691.778 145.021 691.963 144.781 692.106 144.637L700.591 153.123C702.476 151.238 703.469 148.8 703.469 146.16H691.469ZM692.106 144.637C692.306 144.438 692.579 144.251 692.894 144.128C693.197 144.01 693.414 144 693.469 144V156C696.04 156 698.59 155.125 700.591 153.123L692.106 144.637ZM693.469 144H621.789V156H693.469V144ZM730.615 147.28L727.932 152.647L727.951 152.656L727.971 152.666L730.615 147.28ZM717.015 134.8L711.818 137.798L711.852 137.858L711.888 137.916L717.015 134.8ZM711.735 114.8L717.73 114.554L717.727 114.477L717.722 114.401L711.735 114.8ZM711.735 102L717.723 102.374L717.727 102.31L717.73 102.246L711.735 102ZM717.015 82.16L711.861 79.0876L711.852 79.1027L711.843 79.1179L717.015 82.16ZM730.615 69.52L727.971 64.134L727.951 64.1436L727.932 64.1534L730.615 69.52ZM768.375 68.08L766.147 73.6509L768.375 68.08ZM780.215 75.28L776.126 79.6714L780.215 75.28ZM787.095 84.4L781.658 86.9373L781.71 87.048L781.766 87.1565L787.095 84.4ZM789.655 92.88L783.66 93.1298L783.666 93.2767L783.68 93.4232L789.655 92.88ZM788.535 95.76L792.44 100.316L792.463 100.296L792.486 100.275L788.535 95.76ZM769.175 95.92L764.932 100.163L765.125 100.355L765.334 100.529L769.175 95.92ZM767.575 93.52L761.957 95.6267L762.068 95.9216L762.208 96.2033L767.575 93.52ZM761.175 84.56L757.707 89.4561L757.822 89.5376L757.941 89.6136L761.175 84.56ZM738.455 86.96L734.078 82.8563L734.073 82.8611L738.455 86.96ZM733.495 102.8L739.487 103.115L739.49 103.046L739.492 102.976L733.495 102.8ZM733.495 114L739.492 113.826L739.49 113.726L739.483 113.626L733.495 114ZM738.455 130L734.073 134.099L734.108 134.136L734.143 134.173L738.455 130ZM761.335 132.4L764.663 137.392L764.734 137.345L764.803 137.296L761.335 132.4ZM767.575 123.28L762.208 120.597L762.068 120.878L761.957 121.173L767.575 123.28ZM769.175 120.88L765.334 116.271L765.125 116.445L764.932 116.637L769.175 120.88ZM788.535 121.2L784.292 125.443L784.594 125.744L784.935 126L788.535 121.2ZM789.655 123.92L783.68 123.377L783.67 123.482L783.664 123.587L789.655 123.92ZM788.055 130.48L782.468 128.294L782.441 128.361L782.416 128.43L788.055 130.48ZM783.735 137.84L779.031 134.116L779.02 134.129L779.01 134.142L783.735 137.84ZM776.375 144.72L779.744 149.685L779.804 149.644L779.862 149.602L776.375 144.72ZM765.495 149.68L763.771 143.933L763.751 143.939L763.73 143.945L765.495 149.68ZM750.935 145.6C744.012 145.6 738.171 144.305 733.259 141.894L727.971 152.666C734.793 156.015 742.498 157.6 750.935 157.6V145.6ZM733.298 141.913C728.536 139.532 724.855 136.147 722.142 131.684L711.888 137.916C715.788 144.333 721.174 149.268 727.932 152.647L733.298 141.913ZM722.212 131.802C719.591 127.258 718.019 121.58 717.73 114.554L705.74 115.046C706.091 123.594 708.039 131.249 711.818 137.798L722.212 131.802ZM717.722 114.401C717.628 112.988 717.575 111.055 717.575 108.56H705.575C705.575 111.185 705.629 113.412 705.748 115.199L717.722 114.401ZM717.575 108.56C717.575 105.958 717.627 103.908 717.723 102.374L705.747 101.626C705.629 103.506 705.575 105.829 705.575 108.56H717.575ZM717.73 102.246C718.019 95.2171 719.591 89.6149 722.187 85.2021L711.843 79.1179C708.039 85.5851 706.091 93.2096 705.74 101.754L717.73 102.246ZM722.169 85.2324C724.89 80.668 728.567 77.2522 733.298 74.8866L727.932 64.1534C721.143 67.5478 715.754 72.5587 711.861 79.0876L722.169 85.2324ZM733.259 74.906C738.171 72.4949 744.012 71.2 750.935 71.2V59.2C742.498 59.2 734.793 60.7851 727.971 64.134L733.259 74.906ZM750.935 71.2C757.23 71.2 762.243 72.0892 766.147 73.6509L770.603 62.5091C764.907 60.2308 758.293 59.2 750.935 59.2V71.2ZM766.147 73.6509C770.408 75.3553 773.681 77.3947 776.126 79.6714L784.304 70.8886C780.562 67.4053 775.942 64.6447 770.603 62.5091L766.147 73.6509ZM776.126 79.6714C778.764 82.127 780.548 84.5593 781.658 86.9373L792.532 81.8627C790.655 77.8407 787.853 74.193 784.304 70.8886L776.126 79.6714ZM781.766 87.1565C783.1 89.7366 783.601 91.6987 783.66 93.1298L795.65 92.6302C795.496 88.9413 794.29 85.25 792.424 81.6435L781.766 87.1565ZM783.68 93.4232C783.661 93.2198 783.668 92.8061 783.863 92.3053C784.061 91.796 784.358 91.4425 784.584 91.2445L792.486 100.275C794.85 98.2067 795.903 95.3351 795.63 92.3368L783.68 93.4232ZM784.63 91.2045C784.806 91.0536 785.037 90.9143 785.298 90.8221C785.552 90.7323 785.742 90.72 785.815 90.72V102.72C788.183 102.72 790.51 101.969 792.44 100.316L784.63 91.2045ZM785.815 90.72H771.735V102.72H785.815V90.72ZM771.735 90.72C771.695 90.72 771.833 90.7144 772.085 90.7931C772.353 90.877 772.689 91.0381 773.016 91.3107L765.334 100.529C767.325 102.189 769.666 102.72 771.735 102.72V90.72ZM773.418 91.6773C773.494 91.7539 773.471 91.7479 773.367 91.5918C773.267 91.4409 773.122 91.198 772.942 90.8367L762.208 96.2033C762.883 97.5523 763.757 98.9876 764.932 100.163L773.418 91.6773ZM773.193 91.4133C771.331 86.4475 768.555 82.1595 764.409 79.5064L757.941 89.6136C759.129 90.3738 760.619 92.0592 761.957 95.6267L773.193 91.4133ZM764.643 79.6639C760.809 76.9482 756.189 75.84 751.255 75.84V87.84C754.428 87.84 756.421 88.5451 757.707 89.4561L764.643 79.6639ZM751.255 75.84C744.518 75.84 738.575 78.0589 734.078 82.8563L742.832 91.0636C744.735 89.0344 747.325 87.84 751.255 87.84V75.84ZM734.073 82.8611C729.531 87.7164 727.729 94.7409 727.498 102.624L739.492 102.976C739.687 96.3524 741.192 92.817 742.837 91.0589L734.073 82.8611ZM727.503 102.485C727.28 106.727 727.277 110.694 727.507 114.374L739.483 113.626C739.287 110.48 739.283 106.98 739.487 103.115L727.503 102.485ZM727.497 114.174C727.728 122.136 729.519 129.23 734.073 134.099L742.837 125.901C741.204 124.156 739.688 120.584 739.492 113.826L727.497 114.174ZM734.143 134.173C738.655 138.835 744.577 140.96 751.255 140.96V128.96C747.266 128.96 744.655 127.778 742.767 125.827L734.143 134.173ZM751.255 140.96C756.193 140.96 760.826 139.95 764.663 137.392L758.007 127.408C756.724 128.263 754.637 128.96 751.255 128.96V140.96ZM764.803 137.296C768.693 134.541 771.353 130.293 773.193 125.387L761.957 121.173C760.597 124.8 759.097 126.633 757.867 127.504L764.803 137.296ZM772.942 125.963C773.122 125.602 773.267 125.359 773.367 125.208C773.471 125.052 773.494 125.046 773.418 125.123L764.932 116.637C763.757 117.812 762.883 119.248 762.208 120.597L772.942 125.963ZM773.016 125.489C772.689 125.762 772.353 125.923 772.085 126.007C771.833 126.086 771.695 126.08 771.735 126.08V114.08C769.666 114.08 767.325 114.611 765.334 116.271L773.016 125.489ZM771.735 126.08H785.815V114.08H771.735V126.08ZM785.815 126.08C785.634 126.08 785.343 126.045 785.01 125.908C784.677 125.771 784.436 125.586 784.292 125.443L792.778 116.957C790.893 115.073 788.455 114.08 785.815 114.08V126.08ZM784.935 126C784.576 125.731 784.167 125.277 783.907 124.645C783.658 124.04 783.663 123.561 783.68 123.377L795.63 124.463C795.902 121.476 794.851 118.437 792.135 116.4L784.935 126ZM783.664 123.587C783.603 124.685 783.275 126.23 782.468 128.294L793.642 132.666C794.755 129.824 795.493 126.995 795.646 124.253L783.664 123.587ZM782.416 128.43C781.838 130.019 780.774 131.914 779.031 134.116L788.439 141.564C790.749 138.646 792.565 135.635 793.694 132.53L782.416 128.43ZM779.01 134.142C777.5 136.071 775.488 137.98 772.888 139.838L779.862 149.602C783.235 147.193 786.13 144.515 788.46 141.538L779.01 134.142ZM773.006 139.755C770.627 141.37 767.584 142.789 763.771 143.933L767.219 155.427C771.939 154.011 776.15 152.124 779.744 149.685L773.006 139.755ZM763.73 143.945C760.274 145.009 756.039 145.6 750.935 145.6V157.6C756.924 157.6 762.396 156.911 767.26 155.415L763.73 143.945ZM807.621 37.52L811.864 41.7626V41.7626L807.621 37.52ZM826.021 37.52L821.466 41.4247L821.616 41.5997L821.779 41.7626L826.021 37.52ZM827.141 94.96H821.141V108.9L831.266 99.3178L827.141 94.96ZM854.021 69.52L850.035 65.0355L849.965 65.0978L849.897 65.1622L854.021 69.52ZM856.581 67.6L859.558 72.8094L859.822 72.6588L860.069 72.4824L856.581 67.6ZM878.021 71.76L872.45 69.5316V69.5317L878.021 71.76ZM876.741 73.2L873.413 68.2077L873.001 68.4826L872.639 68.8214L876.741 73.2ZM843.781 104.08L839.679 99.7015L835.313 103.792L839.391 108.169L843.781 104.08ZM880.741 143.76L876.351 147.849L876.423 147.927L876.499 148.003L880.741 143.76ZM881.221 149.04L877.317 144.484L877.142 144.634L876.979 144.797L881.221 149.04ZM860.101 149.36L856.26 153.969L856.666 154.307L857.124 154.569L860.101 149.36ZM857.701 147.28L853.352 151.413L853.526 151.596L853.715 151.764L857.701 147.28ZM827.141 115.12L831.491 110.987L821.141 100.096V115.12H827.141ZM826.021 148.88L821.779 144.637L821.616 144.8L821.466 144.975L826.021 148.88ZM810.341 144C810.522 144 810.813 144.035 811.146 144.172C811.48 144.309 811.721 144.494 811.864 144.637L803.379 153.123C805.263 155.007 807.701 156 810.341 156V144ZM811.864 144.637C812.007 144.781 812.192 145.021 812.329 145.355C812.466 145.688 812.501 145.979 812.501 146.16H800.501C800.501 148.8 801.494 151.238 803.379 153.123L811.864 144.637ZM812.501 146.16V40.24H800.501V146.16H812.501ZM812.501 40.24C812.501 40.4211 812.466 40.7117 812.329 41.0445C812.192 41.3785 812.007 41.6194 811.864 41.7626L803.379 33.2773C801.494 35.162 800.501 37.6002 800.501 40.24H812.501ZM811.864 41.7626C811.721 41.9059 811.48 42.0905 811.146 42.2281C810.813 42.3651 810.522 42.4 810.341 42.4V30.4C807.701 30.4 805.263 31.3927 803.379 33.2774L811.864 41.7626ZM810.341 42.4H823.301V30.4H810.341V42.4ZM823.301 42.4C823.255 42.4 822.976 42.3923 822.577 42.2281C822.151 42.0528 821.76 41.7686 821.466 41.4247L830.577 33.6153C828.575 31.2801 825.854 30.4 823.301 30.4V42.4ZM821.779 41.7626C821.635 41.6194 821.451 41.3785 821.313 41.0445C821.176 40.7117 821.141 40.4211 821.141 40.24H833.141C833.141 37.6002 832.149 35.162 830.264 33.2773L821.779 41.7626ZM821.141 40.24V94.96H833.141V40.24H821.141ZM831.266 99.3178L858.146 73.8778L849.897 65.1622L823.017 90.6022L831.266 99.3178ZM858.007 74.0044C858.793 73.3061 859.302 72.9559 859.558 72.8094L853.604 62.3905C852.367 63.0974 851.169 64.0273 850.035 65.0355L858.007 74.0044ZM860.069 72.4824C859.673 72.7652 859.38 72.8346 859.371 72.8368C859.361 72.8392 859.401 72.8292 859.5 72.819C859.599 72.8089 859.744 72.8 859.941 72.8V60.8C857.915 60.8 855.318 61.1292 853.094 62.7176L860.069 72.4824ZM859.941 72.8H874.821V60.8H859.941V72.8ZM874.821 72.8C874.755 72.8 874.506 72.7896 874.154 72.658C873.785 72.5194 873.429 72.2926 873.139 72.0026L881.624 63.5174C879.659 61.553 877.173 60.8 874.821 60.8V72.8ZM873.139 72.0026C872.849 71.7127 872.622 71.3563 872.483 70.9867C872.352 70.6356 872.341 70.3858 872.341 70.32H884.341C884.341 67.9678 883.588 65.4818 881.624 63.5174L873.139 72.0026ZM872.341 70.32C872.341 69.7689 872.473 69.4762 872.45 69.5316L883.592 73.9884C883.997 72.9771 884.341 71.7244 884.341 70.32H872.341ZM872.45 69.5317C872.818 68.6136 873.379 68.2302 873.413 68.2077L880.069 78.1923C881.383 77.3165 882.798 75.9731 883.592 73.9883L872.45 69.5317ZM872.639 68.8214L839.679 99.7015L847.883 108.459L880.844 77.5785L872.639 68.8214ZM839.391 108.169L876.351 147.849L885.132 139.671L848.172 99.9905L839.391 108.169ZM876.499 148.003C876.814 148.318 876.845 148.411 876.77 148.282C876.704 148.171 876.341 147.527 876.341 146.48H888.341C888.341 143.144 886.185 140.718 884.984 139.517L876.499 148.003ZM876.341 146.48C876.341 146.305 876.374 145.949 876.564 145.515C876.76 145.068 877.043 144.719 877.317 144.484L885.126 153.596C887.325 151.711 888.341 149.13 888.341 146.48H876.341ZM876.979 144.797C877.204 144.572 877.521 144.346 877.913 144.189C878.298 144.035 878.625 144 878.821 144V156C881.265 156 883.625 155.121 885.464 153.283L876.979 144.797ZM878.821 144H863.621V156H878.821V144ZM863.621 144C863.068 144 862.751 143.962 862.615 143.937C862.553 143.926 862.567 143.924 862.639 143.948C862.71 143.972 862.868 144.03 863.078 144.151L857.124 154.569C859.264 155.792 861.735 156 863.621 156V144ZM863.942 144.751C863.37 144.274 862.622 143.626 861.687 142.796L853.715 151.764C854.7 152.64 855.552 153.38 856.26 153.969L863.942 144.751ZM862.051 143.147L831.491 110.987L822.792 119.253L853.352 151.413L862.051 143.147ZM821.141 115.12V146.16H833.141V115.12H821.141ZM821.141 146.16C821.141 145.979 821.176 145.688 821.313 145.355C821.451 145.021 821.635 144.781 821.779 144.637L830.264 153.123C832.149 151.238 833.141 148.8 833.141 146.16H821.141ZM821.466 144.975C821.76 144.631 822.151 144.347 822.577 144.172C822.976 144.008 823.255 144 823.301 144V156C825.854 156 828.575 155.12 830.577 152.785L821.466 144.975ZM823.301 144H810.341V156H823.301V144Z" fill="white"/>
<path d="M48.2125 128.347C-71.5614 176.367 50.6324 245.882 431.731 212.039C720.56 186.39 826.743 115.999 836.422 72.0945C844.932 33.4928 756.774 44.502 751.128 48.7705" stroke="url(#paint0_radial_263_152)" stroke-width="7"/>
<defs>
<radialGradient id="paint0_radial_263_152" cx="0" cy="0" r="1" gradientUnits="userSpaceOnUse" gradientTransform="translate(455.927 221.186) rotate(-99.3882) scale(215.084 1000.69)">
<stop stop-color="white"/>
<stop offset="0.898764" stop-color="white" stop-opacity="0"/>
</radialGradient>
</defs>
</svg>
