<svg viewBox="0 0 887 960" fill="none" xmlns="http://www.w3.org/2000/svg">
<g filter="url(#filter0_d_304_154)">
<rect x="881.999" y="92" width="775" height="745" rx="77" transform="rotate(89.9242 881.999 92)" fill="url(#paint0_linear_304_154)" fill-opacity="0.7" shape-rendering="crispEdges"/>
<rect x="880.501" y="93.502" width="772" height="742" rx="75.5" transform="rotate(89.9242 880.501 93.502)" stroke="white" stroke-width="3" shape-rendering="crispEdges"/>
</g>
<mask id="path-3-inside-1_304_154" fill="white">
<path fill-rule="evenodd" clip-rule="evenodd" d="M222 0H-45V960H222C244.091 960 262 942.091 262 920V657.791C195.168 626.006 149 558.117 149 479.5C149 400.882 195.168 332.994 262 301.209V40C262 17.9086 244.091 0 222 0Z"/>
</mask>
<path fill-rule="evenodd" clip-rule="evenodd" d="M222 0H-45V960H222C244.091 960 262 942.091 262 920V657.791C195.168 626.006 149 558.117 149 479.5C149 400.882 195.168 332.994 262 301.209V40C262 17.9086 244.091 0 222 0Z" fill="url(#paint1_linear_304_154)" fill-opacity="0.8"/>
<path fill-rule="evenodd" clip-rule="evenodd" d="M222 0H-45V960H222C244.091 960 262 942.091 262 920V657.791C195.168 626.006 149 558.117 149 479.5C149 400.882 195.168 332.994 262 301.209V40C262 17.9086 244.091 0 222 0Z" fill="black" fill-opacity="0.2"/>
<path d="M-45 0V-3H-48V0H-45ZM-45 960H-48V963H-45V960ZM262 657.791H265V655.896L263.288 655.082L262 657.791ZM262 301.209L263.288 303.918L265 303.104V301.209H262ZM-45 3H222V-3H-45V3ZM-42 960V0H-48V960H-42ZM222 957H-45V963H222V957ZM259 920C259 940.435 242.435 957 222 957V963C245.748 963 265 943.748 265 920H259ZM259 657.791V920H265V657.791H259ZM263.288 655.082C197.457 623.773 152 556.911 152 479.5H146C146 559.324 192.879 628.24 260.712 660.5L263.288 655.082ZM152 479.5C152 402.089 197.457 335.227 263.288 303.918L260.712 298.5C192.879 330.76 146 399.675 146 479.5H152ZM259 40V301.209H265V40H259ZM222 3C242.435 3 259 19.5655 259 40H265C265 16.2518 245.748 -3 222 -3V3Z" fill="white" mask="url(#path-3-inside-1_304_154)"/>
<mask id="path-5-inside-2_304_154" fill="white">
<path fill-rule="evenodd" clip-rule="evenodd" d="M222 0H-45V960H222C244.091 960 262 942.091 262 920V657.791C195.168 626.006 149 558.117 149 479.5C149 400.882 195.168 332.994 262 301.209V40C262 17.9086 244.091 0 222 0Z"/>
</mask>
<path fill-rule="evenodd" clip-rule="evenodd" d="M222 0H-45V960H222C244.091 960 262 942.091 262 920V657.791C195.168 626.006 149 558.117 149 479.5C149 400.882 195.168 332.994 262 301.209V40C262 17.9086 244.091 0 222 0Z" fill="url(#paint2_linear_304_154)" fill-opacity="0.8"/>
<path fill-rule="evenodd" clip-rule="evenodd" d="M222 0H-45V960H222C244.091 960 262 942.091 262 920V657.791C195.168 626.006 149 558.117 149 479.5C149 400.882 195.168 332.994 262 301.209V40C262 17.9086 244.091 0 222 0Z" fill="black" fill-opacity="0.2"/>
<path d="M-45 0V-3H-48V0H-45ZM-45 960H-48V963H-45V960ZM262 657.791H265V655.896L263.288 655.082L262 657.791ZM262 301.209L263.288 303.918L265 303.104V301.209H262ZM-45 3H222V-3H-45V3ZM-42 960V0H-48V960H-42ZM222 957H-45V963H222V957ZM259 920C259 940.435 242.435 957 222 957V963C245.748 963 265 943.748 265 920H259ZM259 657.791V920H265V657.791H259ZM263.288 655.082C197.457 623.773 152 556.911 152 479.5H146C146 559.324 192.879 628.24 260.712 660.5L263.288 655.082ZM152 479.5C152 402.089 197.457 335.227 263.288 303.918L260.712 298.5C192.879 330.76 146 399.675 146 479.5H152ZM259 40V301.209H265V40H259ZM222 3C242.435 3 259 19.5655 259 40H265C265 16.2518 245.748 -3 222 -3V3Z" fill="white" mask="url(#path-5-inside-2_304_154)"/>
<defs>
<filter id="filter0_d_304_154" x="133.102" y="92.1021" width="753.821" height="783.781" filterUnits="userSpaceOnUse" color-interpolation-filters="sRGB">
<feFlood flood-opacity="0" result="BackgroundImageFix"/>
<feColorMatrix in="SourceAlpha" type="matrix" values="0 0 0 0 0 0 0 0 0 0 0 0 0 0 0 0 0 0 127 0" result="hardAlpha"/>
<feOffset dy="4"/>
<feGaussianBlur stdDeviation="2"/>
<feComposite in2="hardAlpha" operator="out"/>
<feColorMatrix type="matrix" values="0 0 0 0 0 0 0 0 0 0 0 0 0 0 0 0 0 0 0.25 0"/>
<feBlend mode="normal" in2="BackgroundImageFix" result="effect1_dropShadow_304_154"/>
<feBlend mode="normal" in="SourceGraphic" in2="effect1_dropShadow_304_154" result="shape"/>
</filter>
<linearGradient id="paint0_linear_304_154" x1="1269.5" y1="92" x2="1269.5" y2="837" gradientUnits="userSpaceOnUse">
<stop stop-color="#D9D9D9"/>
<stop offset="1" stop-color="#D9D9D9" stop-opacity="0"/>
</linearGradient>
<linearGradient id="paint1_linear_304_154" x1="108.5" y1="0" x2="108.5" y2="960" gradientUnits="userSpaceOnUse">
<stop stop-color="#FF69A2"/>
<stop offset="0.728781" stop-color="#703BE6"/>
</linearGradient>
<linearGradient id="paint2_linear_304_154" x1="108.5" y1="0" x2="108.5" y2="960" gradientUnits="userSpaceOnUse">
<stop stop-color="#FF69A2"/>
<stop offset="0.728781" stop-color="#703BE6"/>
</linearGradient>
</defs>
</svg>
