<svg width="888" height="474" viewBox="0 0 888 474" fill="none" xmlns="http://www.w3.org/2000/svg">
<path d="M86.1198 234.68H92.1198V228.68H86.1198V234.68ZM53.7998 233.56L58.0424 229.317L58.0424 229.317L53.7998 233.56ZM53.7998 216.12L58.0424 220.363L58.0424 220.363L53.7998 216.12ZM108.68 234.68V228.68H102.68V234.68H108.68ZM89.9598 321C90.1408 321 90.4315 321.035 90.7643 321.172C91.0983 321.309 91.3391 321.494 91.4824 321.637L82.9971 330.123C84.8818 332.007 87.32 333 89.9598 333V321ZM91.4824 321.637C91.6257 321.781 91.8103 322.021 91.9478 322.355C92.0849 322.688 92.1198 322.979 92.1198 323.16H80.1198C80.1198 325.8 81.1125 328.238 82.9971 330.123L91.4824 321.637ZM92.1198 323.16V234.68H80.1198V323.16H92.1198ZM86.1198 228.68H56.5198V240.68H86.1198V228.68ZM56.5198 228.68C56.7008 228.68 56.9915 228.715 57.3243 228.852C57.6583 228.989 57.8991 229.174 58.0424 229.317L49.5571 237.803C51.4418 239.687 53.8799 240.68 56.5198 240.68V228.68ZM58.0424 229.317C58.1857 229.461 58.3703 229.701 58.5078 230.035C58.6449 230.368 58.6798 230.659 58.6798 230.84H46.6798C46.6798 233.48 47.6725 235.918 49.5571 237.803L58.0424 229.317ZM58.6798 230.84V219H46.6798V230.84H58.6798ZM58.6798 219C58.6798 219.055 58.6696 219.272 58.5518 219.575C58.4292 219.89 58.2422 220.163 58.0424 220.363L49.5571 211.877C47.5552 213.879 46.6798 216.429 46.6798 219H58.6798ZM58.0424 220.363C57.8991 220.506 57.6583 220.691 57.3243 220.828C56.9915 220.965 56.7008 221 56.5198 221V209C53.8799 209 51.4418 209.993 49.5571 211.877L58.0424 220.363ZM56.5198 221H138.12V209H56.5198V221ZM138.12 221C138.065 221 137.848 220.99 137.545 220.872C137.23 220.749 136.957 220.562 136.757 220.363L145.242 211.877C143.241 209.875 140.691 209 138.12 209V221ZM136.757 220.363C136.557 220.163 136.37 219.89 136.248 219.575C136.13 219.272 136.12 219.055 136.12 219H148.12C148.12 216.429 147.244 213.879 145.242 211.877L136.757 220.363ZM136.12 219V230.84H148.12V219H136.12ZM136.12 230.84C136.12 230.659 136.155 230.368 136.292 230.035C136.429 229.701 136.614 229.461 136.757 229.317L145.242 237.803C147.127 235.918 148.12 233.48 148.12 230.84H136.12ZM136.757 229.317C136.957 229.118 137.23 228.931 137.545 228.808C137.848 228.69 138.065 228.68 138.12 228.68V240.68C140.691 240.68 143.241 239.805 145.242 237.803L136.757 229.317ZM138.12 228.68H108.68V240.68H138.12V228.68ZM102.68 234.68V323.16H114.68V234.68H102.68ZM102.68 323.16C102.68 322.979 102.715 322.688 102.852 322.355C102.989 322.021 103.174 321.781 103.317 321.637L111.802 330.123C113.687 328.238 114.68 325.8 114.68 323.16H102.68ZM103.317 321.637C103.517 321.438 103.79 321.251 104.105 321.128C104.408 321.01 104.625 321 104.68 321V333C107.251 333 109.801 332.125 111.802 330.123L103.317 321.637ZM104.68 321H89.9598V333H104.68V321ZM137.356 326.04L133.113 330.283L133.276 330.446L133.451 330.596L137.356 326.04ZM136.716 322.2L142.287 324.428L142.312 324.364L142.336 324.3L136.716 322.2ZM175.276 219L180.896 221.1L180.966 220.914L181.023 220.724L175.276 219ZM177.036 216.28L180.987 220.795L181.005 220.78L181.022 220.764L177.036 216.28ZM201.996 216.28L197.753 220.523L197.895 220.664L198.045 220.795L201.996 216.28ZM203.916 219L209.536 216.9L209.512 216.836L209.487 216.772L203.916 219ZM242.476 322.2L248.359 321.023L248.265 320.551L248.096 320.1L242.476 322.2ZM241.676 326.04L245.919 330.283L245.919 330.283L241.676 326.04ZM222.156 326.04L217.6 329.945L217.901 330.295L218.251 330.596L222.156 326.04ZM220.876 323.96L226.568 322.063L226.524 321.932L226.475 321.803L220.876 323.96ZM213.356 304.44L218.955 302.283L217.474 298.44H213.356V304.44ZM165.836 304.44V298.44H161.718L160.237 302.283L165.836 304.44ZM158.316 323.96L152.717 321.803L152.668 321.932L152.624 322.063L158.316 323.96ZM156.876 326.04L152.633 321.797H152.633L156.876 326.04ZM171.436 286.04L165.801 283.979L162.853 292.04H171.436V286.04ZM207.756 286.04V292.04H216.365L213.385 283.963L207.756 286.04ZM189.516 236.6L195.145 234.523L189.491 219.198L183.881 234.539L189.516 236.6ZM139.756 321C140.1 321 140.443 321.068 140.744 321.189C141.035 321.305 141.204 321.436 141.261 321.484L133.451 330.596C135.11 332.017 137.255 333 139.756 333V321ZM141.599 321.797C141.824 322.022 142.05 322.339 142.207 322.732C142.361 323.117 142.396 323.444 142.396 323.64H130.396C130.396 326.084 131.275 328.444 133.113 330.283L141.599 321.797ZM142.396 323.64C142.396 324.191 142.265 324.484 142.287 324.428L131.145 319.972C130.741 320.983 130.396 322.236 130.396 323.64H142.396ZM142.336 324.3L180.896 221.1L169.656 216.9L131.096 320.1L142.336 324.3ZM181.023 220.724C181.025 220.717 181.024 220.722 181.018 220.735C181.012 220.748 181.004 220.764 180.993 220.779C180.983 220.795 180.975 220.806 180.97 220.811C180.967 220.815 180.971 220.81 180.987 220.795L173.085 211.765C171.399 213.24 170.179 215.108 169.529 217.276L181.023 220.724ZM181.022 220.764C180.95 220.828 180.872 220.884 180.793 220.929C180.714 220.974 180.651 221 180.613 221.012C180.54 221.037 180.604 221 180.876 221V209C178.182 209 175.359 209.743 173.05 211.796L181.022 220.764ZM180.876 221H198.316V209H180.876V221ZM198.316 221C198.595 221 198.613 221.038 198.465 220.987C198.387 220.96 198.274 220.911 198.141 220.83C198.008 220.748 197.875 220.644 197.753 220.523L206.239 212.037C203.93 209.729 200.971 209 198.316 209V221ZM198.045 220.795C198.176 220.91 198.265 221.029 198.345 221.228L209.487 216.772C208.713 214.837 207.523 213.144 205.947 211.765L198.045 220.795ZM198.296 221.1L236.856 324.3L248.096 320.1L209.536 216.9L198.296 221.1ZM236.593 323.377C236.616 323.494 236.627 323.575 236.633 323.623C236.638 323.671 236.636 323.675 236.636 323.64H248.636C248.636 322.728 248.524 321.844 248.359 321.023L236.593 323.377ZM236.636 323.64C236.636 323.444 236.671 323.117 236.825 322.732C236.982 322.339 237.208 322.022 237.433 321.797L245.919 330.283C247.757 328.444 248.636 326.084 248.636 323.64H236.636ZM237.433 321.797C237.592 321.639 237.868 321.418 238.272 321.245C238.683 321.069 239.092 321 239.436 321V333C241.985 333 244.229 331.972 245.919 330.283L237.433 321.797ZM239.436 321H225.516V333H239.436V321ZM225.516 321C225.178 321 225.102 320.962 225.204 320.991C225.324 321.025 225.668 321.148 226.061 321.484L218.251 330.596C220.527 332.546 223.305 333 225.516 333V321ZM226.712 322.135C226.635 322.046 226.578 321.974 226.537 321.919C226.496 321.863 226.474 321.829 226.466 321.815C226.458 321.802 226.467 321.815 226.485 321.854C226.504 321.892 226.535 321.962 226.568 322.063L215.184 325.857C215.728 327.489 216.667 328.855 217.6 329.945L226.712 322.135ZM226.475 321.803L218.955 302.283L207.757 306.597L215.277 326.117L226.475 321.803ZM213.356 298.44H165.836V310.44H213.356V298.44ZM160.237 302.283L152.717 321.803L163.915 326.117L171.435 306.597L160.237 302.283ZM152.624 322.063C152.681 321.892 152.74 321.764 152.783 321.682C152.825 321.6 152.856 321.554 152.863 321.545C152.869 321.535 152.857 321.554 152.819 321.599C152.78 321.645 152.72 321.711 152.633 321.797L161.119 330.283C162.189 329.212 163.38 327.742 164.008 325.857L152.624 322.063ZM152.633 321.797C153.16 321.271 153.671 321.073 153.872 321.013C154.051 320.959 154.024 321 153.676 321V333C155.778 333 158.81 332.591 161.119 330.283L152.633 321.797ZM153.676 321H139.756V333H153.676V321ZM171.436 292.04H207.756V280.04H171.436V292.04ZM213.385 283.963L195.145 234.523L183.887 238.677L202.127 288.117L213.385 283.963ZM183.881 234.539L165.801 283.979L177.071 288.101L195.151 238.661L183.881 234.539ZM258.694 325.88L254.451 330.123V330.123L258.694 325.88ZM258.694 216.12L262.936 220.363L262.936 220.363L258.694 216.12ZM326.054 219L323.679 224.51L323.719 224.527L323.759 224.544L326.054 219ZM340.454 230.84L335.4 234.074L335.415 234.098L335.43 234.121L340.454 230.84ZM340.454 270.36L345.446 273.688L345.462 273.665L345.477 273.641L340.454 270.36ZM326.054 281.88L328.348 287.424L326.054 281.88ZM280.454 285.72V279.72H274.454V285.72H280.454ZM279.334 325.88L275.091 321.637L274.928 321.8L274.778 321.975L279.334 325.88ZM280.134 267.96H274.134V273.96H280.134V267.96ZM317.734 263.64L321.674 268.164L321.715 268.129L321.755 268.093L317.734 263.64ZM318.053 237.72L313.672 241.819L313.705 241.855L313.74 241.89L318.053 237.72ZM280.134 232.76V226.76H274.134V232.76H280.134ZM261.414 321C261.595 321 261.885 321.035 262.218 321.172C262.552 321.309 262.793 321.494 262.936 321.637L254.451 330.123C256.336 332.007 258.774 333 261.414 333V321ZM262.936 321.637C263.079 321.781 263.264 322.021 263.402 322.355C263.539 322.688 263.574 322.979 263.574 323.16H251.574C251.574 325.8 252.566 328.238 254.451 330.123L262.936 321.637ZM263.574 323.16V219H251.574V323.16H263.574ZM263.574 219C263.574 219.055 263.563 219.272 263.446 219.575C263.323 219.89 263.136 220.163 262.936 220.363L254.451 211.877C252.449 213.879 251.574 216.429 251.574 219H263.574ZM262.936 220.363C262.793 220.506 262.552 220.691 262.218 220.828C261.885 220.965 261.595 221 261.414 221V209C258.774 209 256.336 209.993 254.451 211.877L262.936 220.363ZM261.414 221H304.294V209H261.414V221ZM304.294 221C311.983 221 318.396 222.233 323.679 224.51L328.428 213.49C321.338 210.434 313.244 209 304.294 209V221ZM323.759 224.544C328.88 226.663 332.687 229.836 335.4 234.074L345.507 227.606C341.393 221.177 335.6 216.457 328.348 213.456L323.759 224.544ZM335.43 234.121C338.057 238.143 339.574 243.485 339.574 250.52H351.574C351.574 241.768 349.677 233.99 345.477 227.559L335.43 234.121ZM339.574 250.52C339.574 257.68 338.049 263.069 335.43 267.079L345.477 273.641C349.685 267.198 351.574 259.36 351.574 250.52H339.574ZM335.461 267.032C332.766 271.075 328.948 274.189 323.759 276.336L328.348 287.424C335.532 284.451 341.314 279.885 345.446 273.688L335.461 267.032ZM323.759 276.336C318.453 278.531 312.011 279.72 304.294 279.72V291.72C313.216 291.72 321.28 290.349 328.348 287.424L323.759 276.336ZM304.294 279.72H280.454V291.72H304.294V279.72ZM274.454 285.72V323.16H286.454V285.72H274.454ZM274.454 323.16C274.454 322.979 274.488 322.688 274.625 322.355C274.763 322.021 274.948 321.781 275.091 321.637L283.576 330.123C285.461 328.238 286.454 325.8 286.454 323.16H274.454ZM274.778 321.975C275.073 321.631 275.464 321.347 275.889 321.172C276.288 321.008 276.567 321 276.614 321V333C279.166 333 281.887 332.12 283.889 329.785L274.778 321.975ZM276.614 321H261.414V333H276.614V321ZM280.134 273.96H303.493V261.96H280.134V273.96ZM303.493 273.96C310.538 273.96 316.9 272.323 321.674 268.164L313.793 259.116C311.954 260.717 308.822 261.96 303.493 261.96V273.96ZM321.755 268.093C326.666 263.657 328.694 257.45 328.694 250.52H316.694C316.694 255.11 315.415 257.649 313.712 259.187L321.755 268.093ZM328.694 250.52C328.694 243.959 326.751 238.085 322.367 233.55L313.74 241.89C315.543 243.755 316.694 246.414 316.694 250.52H328.694ZM322.435 233.621C317.77 228.634 310.996 226.76 303.493 226.76V238.76C309.218 238.76 312.15 240.192 313.672 241.819L322.435 233.621ZM303.493 226.76H280.134V238.76H303.493V226.76ZM274.134 232.76V267.96H286.134V232.76H274.134ZM413.931 323.48L411.181 328.813L411.231 328.838L411.281 328.863L413.931 323.48ZM398.251 308.6L393.01 311.521L393.02 311.54L393.031 311.558L398.251 308.6ZM392.171 285.24L386.173 285.386L386.174 285.454L386.178 285.522L392.171 285.24ZM392.171 256.76L386.178 256.475L386.174 256.548L386.173 256.62L392.171 256.76ZM398.251 233.56L393.047 230.574L393.028 230.606L393.01 230.639L398.251 233.56ZM414.091 218.68L416.774 224.047L416.791 224.038L416.807 224.03L414.091 218.68ZM473.451 224.28L469.586 228.869L469.622 228.9L469.658 228.929L473.451 224.28ZM482.891 235.96L488.258 233.277V233.277L482.891 235.96ZM486.411 250.52L480.412 250.642L480.418 250.913L480.448 251.183L486.411 250.52ZM485.451 252.92L481.546 248.364L481.371 248.514L481.208 248.677L485.451 252.92ZM464.971 253.08L461.066 257.636L461.268 257.808L461.484 257.962L464.971 253.08ZM463.371 250.04L469.217 248.691L469.21 248.659L469.202 248.626L463.371 250.04ZM454.571 235.64L457.716 230.53L454.571 235.64ZM421.931 237.88L426.005 242.285L426.035 242.257L426.064 242.23L421.931 237.88ZM415.051 257.56L421.047 257.779L421.047 257.769L415.051 257.56ZM415.051 284.44L421.047 284.231L415.051 284.44ZM421.931 304.28L417.799 308.63L417.827 308.657L417.857 308.685L421.931 304.28ZM454.571 306.36L457.716 311.47L457.763 311.441L457.809 311.411L454.571 306.36ZM463.371 291.96L469.197 293.394L469.219 293.306L469.238 293.217L463.371 291.96ZM464.971 288.92L461.484 284.038V284.038L464.971 288.92ZM485.451 289.08L481.208 293.323L481.371 293.486L481.546 293.636L485.451 289.08ZM486.411 291.48L480.448 290.817L480.418 291.087L480.412 291.358L486.411 291.48ZM482.891 306.04L488.258 308.723L482.891 306.04ZM473.451 317.88L477.244 322.529L477.28 322.5L477.316 322.469L473.451 317.88ZM458.731 325.72L456.834 320.028L458.731 325.72ZM439.211 322.6C429.958 322.6 422.49 321.006 416.581 318.097L411.281 328.863C419.238 332.781 428.624 334.6 439.211 334.6V322.6ZM416.681 318.147C410.843 315.137 406.497 310.981 403.471 305.642L393.031 311.558C397.259 319.019 403.366 324.783 411.181 328.813L416.681 318.147ZM403.492 305.679C400.405 300.14 398.557 293.298 398.164 284.958L386.178 285.522C386.639 295.316 388.844 304.047 393.01 311.521L403.492 305.679ZM398.169 285.094C398.064 280.776 398.011 276.131 398.011 271.16H386.011C386.011 276.215 386.065 280.958 386.173 285.386L398.169 285.094ZM398.011 271.16C398.011 266.189 398.064 261.436 398.169 256.899L386.173 256.62C386.065 261.258 386.011 266.104 386.011 271.16H398.011ZM398.164 257.045C398.556 248.824 400.399 242.03 403.492 236.481L393.01 230.639C388.85 238.103 386.64 246.776 386.178 256.475L398.164 257.045ZM403.455 236.546C406.59 231.082 410.984 226.942 416.774 224.047L411.408 213.313C403.544 217.245 397.379 223.024 393.047 230.574L403.455 236.546ZM416.807 224.03C422.707 221.035 430.1 219.4 439.211 219.4V207.4C428.695 207.4 419.341 209.285 411.375 213.33L416.807 224.03ZM439.211 219.4C445.941 219.4 451.791 220.291 456.834 221.972L460.628 210.588C454.151 208.429 446.987 207.4 439.211 207.4V219.4ZM456.834 221.972C461.978 223.687 466.191 226.011 469.586 228.869L477.316 219.691C472.604 215.723 467.004 212.713 460.628 210.588L456.834 221.972ZM469.658 228.929C473.084 231.724 475.681 234.956 477.524 238.643L488.258 233.277C485.621 228.004 481.925 223.45 477.244 219.631L469.658 228.929ZM477.524 238.643C479.349 242.292 480.323 246.266 480.412 250.642L492.41 250.398C492.286 244.321 490.913 238.588 488.258 233.277L477.524 238.643ZM480.448 251.183C480.405 250.802 480.431 250.235 480.68 249.612C480.928 248.993 481.289 248.585 481.546 248.364L489.356 257.476C491.577 255.572 492.705 252.833 492.374 249.857L480.448 251.183ZM481.208 248.677C481.433 248.452 481.75 248.226 482.143 248.069C482.528 247.915 482.855 247.88 483.051 247.88V259.88C485.495 259.88 487.855 259.001 489.694 257.163L481.208 248.677ZM483.051 247.88H467.851V259.88H483.051V247.88ZM467.851 247.88C467.714 247.88 467.731 247.864 467.857 247.899C467.994 247.937 468.215 248.024 468.458 248.198L461.484 257.962C463.499 259.402 465.776 259.88 467.851 259.88V247.88ZM468.876 248.524C469.164 248.772 469.291 248.99 469.321 249.046C469.344 249.09 469.288 248.997 469.217 248.691L457.525 251.389C458.009 253.488 458.998 255.863 461.066 257.636L468.876 248.524ZM469.202 248.626C467.301 240.785 463.755 234.247 457.716 230.53L451.426 240.75C453.707 242.153 456.028 245.215 457.54 251.454L469.202 248.626ZM457.716 230.53C452.388 227.252 446.055 225.8 439.051 225.8V237.8C444.42 237.8 448.434 238.908 451.426 240.75L457.716 230.53ZM439.051 225.8C430.715 225.8 423.41 228.199 417.799 233.53L426.064 242.23C428.986 239.454 433.094 237.8 439.051 237.8V225.8ZM417.857 233.475C411.889 238.995 409.399 247.476 409.055 257.351L421.047 257.769C421.343 249.297 423.439 244.658 426.005 242.285L417.857 233.475ZM409.055 257.341C408.73 266.237 408.73 275.34 409.055 284.649L421.047 284.231C420.732 275.193 420.732 266.377 421.047 257.779L409.055 257.341ZM409.055 284.649C409.4 294.541 411.895 303.022 417.799 308.63L426.064 299.93C423.434 297.432 421.342 292.686 421.047 284.231L409.055 284.649ZM417.857 308.685C423.473 313.88 430.758 316.2 439.051 316.2V304.2C433.051 304.2 428.922 302.573 426.005 299.875L417.857 308.685ZM439.051 316.2C446.055 316.2 452.388 314.748 457.716 311.47L451.426 301.25C448.434 303.092 444.42 304.2 439.051 304.2V316.2ZM457.809 311.411C463.741 307.609 467.286 301.159 469.197 293.394L457.545 290.526C456.043 296.627 453.721 299.778 451.333 301.309L457.809 311.411ZM469.238 293.217C469.319 292.84 469.378 292.766 469.321 292.874C469.257 292.995 469.013 293.407 468.458 293.802L461.484 284.038C458.932 285.86 457.943 288.654 457.504 290.703L469.238 293.217ZM468.458 293.802C468.215 293.976 467.994 294.063 467.857 294.101C467.731 294.136 467.714 294.12 467.851 294.12V282.12C465.776 282.12 463.499 282.598 461.484 284.038L468.458 293.802ZM467.851 294.12H483.051V282.12H467.851V294.12ZM483.051 294.12C482.855 294.12 482.528 294.085 482.143 293.931C481.75 293.774 481.433 293.548 481.208 293.323L489.694 284.837C487.855 282.999 485.495 282.12 483.051 282.12V294.12ZM481.546 293.636C481.289 293.415 480.928 293.007 480.68 292.388C480.431 291.765 480.405 291.198 480.448 290.817L492.374 292.143C492.705 289.167 491.577 286.428 489.356 284.524L481.546 293.636ZM480.412 291.358C480.323 295.734 479.349 299.708 477.524 303.357L488.258 308.723C490.913 303.412 492.286 297.679 492.41 291.602L480.412 291.358ZM477.524 303.357C475.671 307.064 473.051 310.373 469.586 313.291L477.316 322.469C481.957 318.561 485.631 313.976 488.258 308.723L477.524 303.357ZM469.658 313.231C466.251 316.01 462.013 318.301 456.834 320.028L460.628 331.412C466.969 329.299 472.544 326.363 477.244 322.529L469.658 313.231ZM456.834 320.028C451.791 321.709 445.941 322.6 439.211 322.6V334.6C446.987 334.6 454.151 333.571 460.628 331.412L456.834 320.028ZM506.506 326.04L502.263 330.283L502.426 330.446L502.601 330.596L506.506 326.04ZM506.506 216.12L510.749 220.363L510.749 220.363L506.506 216.12ZM526.506 216.12L521.95 220.025L522.1 220.2L522.263 220.363L526.506 216.12ZM527.626 260.28H521.626V266.28H527.626V260.28ZM574.826 260.28V266.28H580.826V260.28H574.826ZM575.946 216.12L580.189 220.363V220.363L575.946 216.12ZM595.946 325.88L600.189 330.123V330.123L595.946 325.88ZM575.946 325.88L580.189 321.637V321.637L575.946 325.88ZM574.826 280.28H580.826V274.28H574.826V280.28ZM527.626 280.28V274.28H521.626V280.28H527.626ZM526.506 325.88L522.263 321.637L522.1 321.8L521.95 321.975L526.506 325.88ZM509.226 321C509.299 321 509.489 321.012 509.743 321.102C510.004 321.194 510.235 321.334 510.411 321.484L502.601 330.596C504.531 332.249 506.858 333 509.226 333V321ZM510.749 321.797C510.948 321.997 511.135 322.27 511.258 322.585C511.376 322.888 511.386 323.105 511.386 323.16H499.386C499.386 325.731 500.261 328.281 502.263 330.283L510.749 321.797ZM511.386 323.16V219H499.386V323.16H511.386ZM511.386 219C511.386 219.055 511.376 219.272 511.258 219.575C511.135 219.89 510.948 220.163 510.749 220.363L502.263 211.877C500.261 213.879 499.386 216.429 499.386 219H511.386ZM510.749 220.363C510.605 220.506 510.365 220.691 510.031 220.828C509.698 220.965 509.407 221 509.226 221V209C506.586 209 504.148 209.993 502.263 211.877L510.749 220.363ZM509.226 221H523.786V209H509.226V221ZM523.786 221C523.74 221 523.46 220.992 523.061 220.828C522.636 220.653 522.245 220.369 521.95 220.025L531.062 212.215C529.06 209.88 526.339 209 523.786 209V221ZM522.263 220.363C522.064 220.163 521.877 219.89 521.754 219.575C521.636 219.272 521.626 219.055 521.626 219H533.626C533.626 216.429 532.751 213.879 530.749 211.877L522.263 220.363ZM521.626 219V260.28H533.626V219H521.626ZM527.626 266.28H574.826V254.28H527.626V266.28ZM580.826 260.28V219H568.826V260.28H580.826ZM580.826 219C580.826 219.055 580.816 219.272 580.698 219.575C580.575 219.89 580.388 220.163 580.189 220.363L571.703 211.877C569.701 213.879 568.826 216.429 568.826 219H580.826ZM580.189 220.363C580.045 220.506 579.805 220.691 579.471 220.828C579.138 220.965 578.847 221 578.666 221V209C576.026 209 573.588 209.993 571.703 211.877L580.189 220.363ZM578.666 221H593.066V209H578.666V221ZM593.066 221C593.011 221 592.794 220.99 592.491 220.872C592.176 220.749 591.903 220.562 591.703 220.363L600.189 211.877C598.187 209.875 595.637 209 593.066 209V221ZM591.703 220.363C591.504 220.163 591.317 219.89 591.194 219.575C591.076 219.272 591.066 219.055 591.066 219H603.066C603.066 216.429 602.191 213.879 600.189 211.877L591.703 220.363ZM591.066 219V323.16H603.066V219H591.066ZM591.066 323.16C591.066 322.979 591.101 322.688 591.238 322.356C591.375 322.022 591.56 321.781 591.703 321.637L600.189 330.123C602.073 328.238 603.066 325.8 603.066 323.16H591.066ZM591.703 321.637C591.903 321.438 592.176 321.251 592.491 321.128C592.794 321.01 593.011 321 593.066 321V333C595.637 333 598.187 332.125 600.189 330.123L591.703 321.637ZM593.066 321H578.666V333H593.066V321ZM578.666 321C578.847 321 579.138 321.035 579.471 321.172C579.805 321.309 580.045 321.494 580.189 321.637L571.703 330.123C573.588 332.007 576.026 333 578.666 333V321ZM580.189 321.637C580.332 321.781 580.517 322.021 580.654 322.355C580.791 322.688 580.826 322.979 580.826 323.16H568.826C568.826 325.8 569.819 328.238 571.703 330.123L580.189 321.637ZM580.826 323.16V280.28H568.826V323.16H580.826ZM574.826 274.28H527.626V286.28H574.826V274.28ZM521.626 280.28V323.16H533.626V280.28H521.626ZM521.626 323.16C521.626 322.979 521.661 322.688 521.798 322.355C521.935 322.021 522.12 321.781 522.263 321.637L530.749 330.123C532.633 328.238 533.626 325.8 533.626 323.16H521.626ZM521.95 321.975C522.245 321.631 522.636 321.347 523.062 321.172C523.46 321.008 523.74 321 523.786 321V333C526.339 333 529.06 332.12 531.062 329.785L521.95 321.975ZM523.786 321H509.226V333H523.786V321ZM623.068 325.88L618.826 330.123V330.123L623.068 325.88ZM623.068 216.12L627.311 220.363V220.363L623.068 216.12ZM699.068 216.12L694.826 220.363V220.363L699.068 216.12ZM643.549 233.4V227.4H637.549V233.4H643.549ZM643.549 261.72H637.549V267.72H643.549V261.72ZM695.549 262.84L691.306 267.083L691.469 267.246L691.644 267.396L695.549 262.84ZM695.549 278.36L699.453 282.916L699.628 282.766L699.791 282.603L695.549 278.36ZM643.549 279.32V273.32H637.549V279.32H643.549ZM643.549 308.6H637.549V314.6H643.549V308.6ZM700.349 309.72L696.106 313.963L696.106 313.963L700.349 309.72ZM700.349 325.88L696.106 321.637L696.106 321.637L700.349 325.88ZM625.789 321C625.97 321 626.26 321.035 626.593 321.172C626.927 321.309 627.168 321.494 627.311 321.637L618.826 330.123C620.711 332.007 623.149 333 625.789 333V321ZM627.311 321.637C627.454 321.781 627.639 322.021 627.777 322.355C627.914 322.688 627.948 322.979 627.948 323.16H615.948C615.948 325.8 616.941 328.238 618.826 330.123L627.311 321.637ZM627.948 323.16V219H615.948V323.16H627.948ZM627.948 219C627.948 219.055 627.938 219.272 627.821 219.575C627.698 219.89 627.511 220.163 627.311 220.363L618.826 211.877C616.824 213.879 615.948 216.429 615.948 219H627.948ZM627.311 220.363C627.168 220.506 626.927 220.691 626.593 220.828C626.26 220.965 625.97 221 625.789 221V209C623.149 209 620.711 209.993 618.826 211.877L627.311 220.363ZM625.789 221H696.189V209H625.789V221ZM696.189 221C696.134 221 695.917 220.99 695.614 220.872C695.299 220.749 695.026 220.562 694.826 220.363L703.311 211.877C701.309 209.875 698.759 209 696.189 209V221ZM694.826 220.363C694.626 220.163 694.439 219.89 694.316 219.575C694.199 219.272 694.189 219.055 694.189 219H706.189C706.189 216.429 705.313 213.879 703.311 211.877L694.826 220.363ZM694.189 219V229.56H706.189V219H694.189ZM694.189 229.56C694.189 229.379 694.223 229.088 694.36 228.755C694.498 228.421 694.683 228.181 694.826 228.037L703.311 236.523C705.196 234.638 706.189 232.2 706.189 229.56H694.189ZM694.826 228.037C695.026 227.838 695.299 227.651 695.614 227.528C695.917 227.41 696.134 227.4 696.189 227.4V239.4C698.759 239.4 701.309 238.525 703.311 236.523L694.826 228.037ZM696.189 227.4H643.549V239.4H696.189V227.4ZM637.549 233.4V261.72H649.549V233.4H637.549ZM643.549 267.72H692.669V255.72H643.549V267.72ZM692.669 267.72C692.614 267.72 692.397 267.71 692.094 267.592C691.779 267.469 691.506 267.282 691.306 267.083L699.791 258.597C697.789 256.595 695.239 255.72 692.669 255.72V267.72ZM691.644 267.396C691.3 267.101 691.016 266.71 690.84 266.284C690.676 265.886 690.669 265.606 690.669 265.56H702.669C702.669 263.007 701.788 260.286 699.453 258.284L691.644 267.396ZM690.669 265.56V275.48H702.669V265.56H690.669ZM690.669 275.48C690.669 275.425 690.679 275.208 690.796 274.905C690.919 274.59 691.106 274.317 691.306 274.117L699.791 282.603C701.793 280.601 702.669 278.051 702.669 275.48H690.669ZM691.644 273.804C691.877 273.605 692.137 273.466 692.371 273.388C692.592 273.314 692.711 273.32 692.669 273.32V285.32C694.984 285.32 697.418 284.66 699.453 282.916L691.644 273.804ZM692.669 273.32H643.549V285.32H692.669V273.32ZM637.549 279.32V308.6H649.549V279.32H637.549ZM643.549 314.6H697.469V302.6H643.549V314.6ZM697.469 314.6C697.414 314.6 697.197 314.59 696.894 314.472C696.579 314.349 696.306 314.162 696.106 313.963L704.591 305.477C702.589 303.475 700.039 302.6 697.469 302.6V314.6ZM696.106 313.963C695.906 313.763 695.719 313.49 695.596 313.175C695.479 312.872 695.469 312.655 695.469 312.6H707.469C707.469 310.029 706.593 307.479 704.591 305.477L696.106 313.963ZM695.469 312.6V323.16H707.469V312.6H695.469ZM695.469 323.16C695.469 322.979 695.503 322.688 695.64 322.355C695.778 322.021 695.963 321.781 696.106 321.637L704.591 330.123C706.476 328.238 707.469 325.8 707.469 323.16H695.469ZM696.106 321.637C696.306 321.438 696.579 321.251 696.894 321.128C697.197 321.01 697.414 321 697.469 321V333C700.039 333 702.589 332.125 704.591 330.123L696.106 321.637ZM697.469 321H625.789V333H697.469V321ZM734.615 324.28L731.931 329.647L731.951 329.656L731.971 329.666L734.615 324.28ZM721.015 311.8L715.818 314.798L715.852 314.858L715.888 314.916L721.015 311.8ZM715.735 291.8L721.73 291.554L721.727 291.477L721.721 291.401L715.735 291.8ZM715.735 279L721.723 279.374L721.727 279.31L721.73 279.246L715.735 279ZM721.015 259.16L715.861 256.088L715.852 256.103L715.843 256.118L721.015 259.16ZM734.615 246.52L731.971 241.134L731.951 241.144L731.931 241.153L734.615 246.52ZM772.375 245.08L770.146 250.651L772.375 245.08ZM784.215 252.28L780.126 256.671L784.215 252.28ZM791.095 261.4L785.658 263.937L785.709 264.048L785.765 264.157L791.095 261.4ZM793.655 269.88L787.66 270.13L787.666 270.277L787.679 270.423L793.655 269.88ZM792.535 272.76L796.44 277.316L796.463 277.296L796.486 277.275L792.535 272.76ZM773.175 272.92L768.932 277.163L769.125 277.355L769.334 277.529L773.175 272.92ZM771.575 270.52L765.957 272.627L766.067 272.922L766.208 273.203L771.575 270.52ZM765.175 261.56L761.707 266.456L761.822 266.538L761.94 266.614L765.175 261.56ZM742.455 263.96L738.078 259.856L738.073 259.861L742.455 263.96ZM737.495 279.8L743.486 280.115L743.49 280.046L743.492 279.976L737.495 279.8ZM737.495 291L743.492 290.826L743.489 290.726L743.483 290.626L737.495 291ZM742.455 307L738.073 311.099L738.108 311.136L738.143 311.173L742.455 307ZM765.335 309.4L768.663 314.392L768.734 314.345L768.803 314.296L765.335 309.4ZM771.575 300.28L766.208 297.597L766.067 297.878L765.957 298.173L771.575 300.28ZM773.175 297.88L769.334 293.271L769.125 293.445L768.932 293.637L773.175 297.88ZM792.535 298.2L788.292 302.443L788.594 302.744L788.935 303L792.535 298.2ZM793.655 300.92L787.679 300.377L787.67 300.482L787.664 300.587L793.655 300.92ZM792.055 307.48L786.467 305.294L786.441 305.361L786.416 305.43L792.055 307.48ZM787.735 314.84L783.03 311.116L783.02 311.129L783.01 311.142L787.735 314.84ZM780.375 321.72L783.744 326.685L783.803 326.644L783.862 326.602L780.375 321.72ZM769.495 326.68L767.771 320.933L767.75 320.939L767.73 320.945L769.495 326.68ZM754.935 322.6C748.012 322.6 742.17 321.305 737.259 318.894L731.971 329.666C738.793 333.015 746.498 334.6 754.935 334.6V322.6ZM737.298 318.913C732.536 316.532 728.855 313.147 726.142 308.684L715.888 314.916C719.788 321.333 725.174 326.268 731.931 329.647L737.298 318.913ZM726.212 308.802C723.59 304.258 722.018 298.58 721.73 291.554L709.74 292.046C710.091 300.594 712.039 308.249 715.818 314.798L726.212 308.802ZM721.721 291.401C721.627 289.988 721.575 288.055 721.575 285.56H709.575C709.575 288.185 709.629 290.412 709.748 292.199L721.721 291.401ZM721.575 285.56C721.575 282.958 721.627 280.908 721.723 279.374L709.746 278.626C709.629 280.506 709.575 282.829 709.575 285.56H721.575ZM721.73 279.246C722.019 272.217 723.591 266.615 726.186 262.202L715.843 256.118C712.039 262.585 710.091 270.21 709.74 278.754L721.73 279.246ZM726.168 262.232C728.89 257.668 732.567 254.252 737.298 251.887L731.931 241.153C725.143 244.548 719.753 249.559 715.861 256.088L726.168 262.232ZM737.259 251.906C742.17 249.495 748.012 248.2 754.935 248.2V236.2C746.498 236.2 738.793 237.785 731.971 241.134L737.259 251.906ZM754.935 248.2C761.23 248.2 766.242 249.089 770.146 250.651L774.603 239.509C768.907 237.231 762.293 236.2 754.935 236.2V248.2ZM770.146 250.651C774.408 252.355 777.681 254.395 780.126 256.671L788.303 247.889C784.562 244.405 779.942 241.645 774.603 239.509L770.146 250.651ZM780.126 256.671C782.764 259.127 784.548 261.559 785.658 263.937L796.532 258.863C794.655 254.841 791.852 251.193 788.303 247.889L780.126 256.671ZM785.765 264.157C787.1 266.737 787.6 268.699 787.66 270.13L799.65 269.63C799.496 265.941 798.29 262.25 796.424 258.643L785.765 264.157ZM787.679 270.423C787.661 270.22 787.668 269.806 787.863 269.305C788.061 268.796 788.358 268.442 788.584 268.245L796.486 277.275C798.85 275.207 799.903 272.335 799.63 269.337L787.679 270.423ZM788.63 268.204C788.806 268.054 789.037 267.914 789.298 267.822C789.552 267.732 789.742 267.72 789.815 267.72V279.72C792.183 279.72 794.51 278.969 796.44 277.316L788.63 268.204ZM789.815 267.72H775.735V279.72H789.815V267.72ZM775.735 267.72C775.695 267.72 775.833 267.714 776.084 267.793C776.353 267.877 776.689 268.038 777.016 268.311L769.334 277.529C771.325 279.189 773.666 279.72 775.735 279.72V267.72ZM777.417 268.677C777.494 268.754 777.471 268.748 777.367 268.592C777.266 268.441 777.122 268.198 776.941 267.837L766.208 273.203C766.883 274.552 767.757 275.988 768.932 277.163L777.417 268.677ZM777.193 268.413C775.331 263.447 772.555 259.159 768.409 256.506L761.94 266.614C763.128 267.374 764.619 269.059 765.957 272.627L777.193 268.413ZM768.643 256.664C764.809 253.948 760.189 252.84 755.255 252.84V264.84C758.427 264.84 760.42 265.545 761.707 266.456L768.643 256.664ZM755.255 252.84C748.518 252.84 742.575 255.059 738.078 259.856L746.832 268.064C748.734 266.034 751.325 264.84 755.255 264.84V252.84ZM738.073 259.861C733.531 264.716 731.729 271.741 731.497 279.624L743.492 279.976C743.687 273.352 745.192 269.817 746.836 268.059L738.073 259.861ZM731.503 279.485C731.28 283.727 731.276 287.694 731.506 291.374L743.483 290.626C743.286 287.48 743.283 283.98 743.486 280.115L731.503 279.485ZM731.497 291.174C731.728 299.136 733.519 306.23 738.073 311.099L746.836 302.901C745.204 301.156 743.688 297.584 743.492 290.826L731.497 291.174ZM738.143 311.173C742.655 315.835 748.577 317.96 755.255 317.96V305.96C751.266 305.96 748.654 304.778 746.766 302.827L738.143 311.173ZM755.255 317.96C760.193 317.96 764.826 316.95 768.663 314.392L762.007 304.408C760.724 305.263 758.637 305.96 755.255 305.96V317.96ZM768.803 314.296C772.693 311.541 775.353 307.293 777.193 302.387L765.957 298.173C764.597 301.8 763.097 303.633 761.867 304.504L768.803 314.296ZM776.941 302.963C777.122 302.602 777.266 302.359 777.367 302.208C777.471 302.052 777.494 302.046 777.417 302.123L768.932 293.637C767.757 294.812 766.883 296.248 766.208 297.597L776.941 302.963ZM777.016 302.489C776.689 302.762 776.353 302.923 776.084 303.007C775.833 303.086 775.695 303.08 775.735 303.08V291.08C773.666 291.08 771.325 291.611 769.334 293.271L777.016 302.489ZM775.735 303.08H789.815V291.08H775.735V303.08ZM789.815 303.08C789.634 303.08 789.343 303.045 789.01 302.908C788.676 302.771 788.435 302.586 788.292 302.443L796.777 293.957C794.893 292.073 792.455 291.08 789.815 291.08V303.08ZM788.935 303C788.576 302.731 788.167 302.277 787.907 301.645C787.658 301.04 787.663 300.561 787.679 300.377L799.63 301.463C799.902 298.476 798.851 295.437 796.135 293.4L788.935 303ZM787.664 300.587C787.603 301.685 787.275 303.23 786.467 305.294L797.642 309.666C798.755 306.824 799.493 303.995 799.646 301.253L787.664 300.587ZM786.416 305.43C785.838 307.019 784.774 308.914 783.03 311.116L792.439 318.564C794.749 315.646 796.565 312.635 797.694 309.53L786.416 305.43ZM783.01 311.142C781.5 313.071 779.488 314.98 776.887 316.838L783.862 326.602C787.235 324.193 790.13 321.515 792.46 318.538L783.01 311.142ZM777.006 316.755C774.627 318.37 771.584 319.789 767.771 320.933L771.219 332.427C775.939 331.011 780.15 329.124 783.744 326.685L777.006 316.755ZM767.73 320.945C764.274 322.009 760.039 322.6 754.935 322.6V334.6C760.924 334.6 766.396 333.911 771.259 332.415L767.73 320.945ZM811.621 214.52L815.864 218.763V218.763L811.621 214.52ZM830.021 214.52L825.465 218.425L825.615 218.6L825.778 218.763L830.021 214.52ZM831.141 271.96H825.141V285.9L835.265 276.318L831.141 271.96ZM858.021 246.52L854.035 242.036L853.965 242.098L853.897 242.162L858.021 246.52ZM860.581 244.6L863.558 249.809L863.821 249.659L864.068 249.482L860.581 244.6ZM882.021 248.76L876.45 246.532V246.532L882.021 248.76ZM880.741 250.2L877.413 245.208L877 245.483L876.639 245.821L880.741 250.2ZM847.781 281.08L843.679 276.701L839.313 280.792L843.391 285.169L847.781 281.08ZM884.741 320.76L880.351 324.849L880.423 324.927L880.498 325.003L884.741 320.76ZM885.221 326.04L881.316 321.484L881.141 321.634L880.978 321.797L885.221 326.04ZM864.101 326.36L860.26 330.969L860.666 331.307L861.124 331.569L864.101 326.36ZM861.701 324.28L857.352 328.413L857.526 328.596L857.715 328.764L861.701 324.28ZM831.141 292.12L835.49 287.987L825.141 277.096V292.12H831.141ZM830.021 325.88L825.778 321.637L825.615 321.8L825.465 321.975L830.021 325.88ZM814.341 321C814.522 321 814.813 321.035 815.146 321.172C815.479 321.309 815.72 321.494 815.864 321.637L807.378 330.123C809.263 332.007 811.701 333 814.341 333V321ZM815.864 321.637C816.007 321.781 816.192 322.021 816.329 322.355C816.466 322.688 816.501 322.979 816.501 323.16H804.501C804.501 325.8 805.494 328.238 807.378 330.123L815.864 321.637ZM816.501 323.16V217.24H804.501V323.16H816.501ZM816.501 217.24C816.501 217.421 816.466 217.712 816.329 218.044C816.192 218.379 816.007 218.619 815.864 218.763L807.378 210.277C805.494 212.162 804.501 214.6 804.501 217.24H816.501ZM815.864 218.763C815.72 218.906 815.479 219.091 815.146 219.228C814.813 219.365 814.522 219.4 814.341 219.4V207.4C811.701 207.4 809.263 208.393 807.378 210.277L815.864 218.763ZM814.341 219.4H827.301V207.4H814.341V219.4ZM827.301 219.4C827.255 219.4 826.975 219.392 826.576 219.228C826.151 219.053 825.76 218.769 825.465 218.425L834.577 210.615C832.575 208.28 829.854 207.4 827.301 207.4V219.4ZM825.778 218.763C825.635 218.619 825.451 218.379 825.313 218.044C825.176 217.712 825.141 217.421 825.141 217.24H837.141C837.141 214.6 836.148 212.162 834.264 210.277L825.778 218.763ZM825.141 217.24V271.96H837.141V217.24H825.141ZM835.265 276.318L862.145 250.878L853.897 242.162L827.017 267.602L835.265 276.318ZM862.007 251.004C862.793 250.306 863.301 249.956 863.558 249.809L857.604 239.391C856.367 240.097 855.169 241.027 854.035 242.036L862.007 251.004ZM864.068 249.482C863.672 249.765 863.38 249.835 863.371 249.837C863.361 249.839 863.4 249.829 863.5 249.819C863.599 249.809 863.744 249.8 863.941 249.8V237.8C861.915 237.8 859.317 238.129 857.094 239.718L864.068 249.482ZM863.941 249.8H878.821V237.8H863.941V249.8ZM878.821 249.8C878.755 249.8 878.505 249.79 878.154 249.658C877.785 249.519 877.428 249.293 877.138 249.003L885.624 240.517C883.659 238.553 881.173 237.8 878.821 237.8V249.8ZM877.138 249.003C876.848 248.713 876.622 248.356 876.483 247.987C876.351 247.636 876.341 247.386 876.341 247.32H888.341C888.341 244.968 887.588 242.482 885.624 240.517L877.138 249.003ZM876.341 247.32C876.341 246.769 876.472 246.476 876.45 246.532L887.592 250.988C887.996 249.977 888.341 248.724 888.341 247.32H876.341ZM876.45 246.532C876.817 245.614 877.379 245.23 877.413 245.208L884.069 255.192C885.383 254.316 886.798 252.973 887.592 250.988L876.45 246.532ZM876.639 245.821L843.679 276.701L851.883 285.459L884.843 254.579L876.639 245.821ZM843.391 285.169L880.351 324.849L889.131 316.671L852.171 276.991L843.391 285.169ZM880.498 325.003C880.814 325.318 880.845 325.411 880.769 325.282C880.704 325.171 880.341 324.527 880.341 323.48H892.341C892.341 320.144 890.184 317.718 888.984 316.517L880.498 325.003ZM880.341 323.48C880.341 323.305 880.374 322.949 880.564 322.515C880.76 322.068 881.043 321.719 881.316 321.484L889.126 330.596C891.325 328.711 892.341 326.13 892.341 323.48H880.341ZM880.978 321.797C881.203 321.572 881.52 321.346 881.913 321.189C882.298 321.035 882.625 321 882.821 321V333C885.265 333 887.625 332.121 889.464 330.283L880.978 321.797ZM882.821 321H867.621V333H882.821V321ZM867.621 321C867.068 321 866.75 320.962 866.614 320.937C866.552 320.926 866.567 320.924 866.638 320.948C866.709 320.972 866.868 321.03 867.078 321.151L861.124 331.569C863.264 332.792 865.735 333 867.621 333V321ZM867.942 321.751C867.37 321.274 866.622 320.626 865.687 319.796L857.715 328.764C858.7 329.64 859.552 330.38 860.26 330.969L867.942 321.751ZM866.05 320.147L835.49 287.987L826.792 296.253L857.352 328.413L866.05 320.147ZM825.141 292.12V323.16H837.141V292.12H825.141ZM825.141 323.16C825.141 322.979 825.176 322.688 825.313 322.355C825.45 322.021 825.635 321.781 825.778 321.637L834.264 330.123C836.148 328.238 837.141 325.8 837.141 323.16H825.141ZM825.465 321.975C825.76 321.631 826.151 321.347 826.577 321.172C826.975 321.008 827.255 321 827.301 321V333C829.854 333 832.575 332.12 834.577 329.785L825.465 321.975ZM827.301 321H814.341V333H827.301V321Z" fill="white"/>
<path d="M48.2123 305.347C-71.5616 353.367 50.6321 422.882 431.73 389.039C720.56 363.39 826.743 292.999 836.422 249.095C844.931 210.493 756.774 221.502 751.128 225.77" stroke="url(#paint0_radial_263_152)" stroke-width="7"/>
<path d="M262.5 0L268.847 18.2477L286 25L268.847 31.7523L262.5 50L256.153 31.7523L239 25L256.153 18.2477L262.5 0Z" fill="url(#paint1_linear_263_152)"/>
<path d="M214.5 424L220.847 442.248L238 449L220.847 455.752L214.5 474L208.153 455.752L191 449L208.153 442.248L214.5 424Z" fill="url(#paint2_linear_263_152)"/>
<path d="M697.5 127L703.847 145.248L721 152L703.847 158.752L697.5 177L691.153 158.752L674 152L691.153 145.248L697.5 127Z" fill="url(#paint3_linear_263_152)"/>
<defs>
<radialGradient id="paint0_radial_263_152" cx="0" cy="0" r="1" gradientUnits="userSpaceOnUse" gradientTransform="translate(455.927 398.186) rotate(-99.3882) scale(215.084 1000.69)">
<stop stop-color="white"/>
<stop offset="0.898764" stop-color="white" stop-opacity="0"/>
</radialGradient>
<linearGradient id="paint1_linear_263_152" x1="262.5" y1="0" x2="262.5" y2="50" gradientUnits="userSpaceOnUse">
<stop stop-color="white"/>
<stop offset="1" stop-color="#001AFF" stop-opacity="0.72"/>
</linearGradient>
<linearGradient id="paint2_linear_263_152" x1="214.5" y1="424" x2="214.5" y2="474" gradientUnits="userSpaceOnUse">
<stop stop-color="white"/>
<stop offset="1" stop-color="#182FFF" stop-opacity="0.72"/>
</linearGradient>
<linearGradient id="paint3_linear_263_152" x1="697.5" y1="127" x2="697.5" y2="177" gradientUnits="userSpaceOnUse">
<stop stop-color="white"/>
<stop offset="1" stop-color="#3749E9" stop-opacity="0.8"/>
</linearGradient>
</defs>
</svg>
